<svg xmlns="http://www.w3.org/2000/svg" xmlns:xlink="http://www.w3.org/1999/xlink" contentStyleType="text/css" data-diagram-type="CLASS" height="497px" preserveAspectRatio="none" style="width:303px;height:497px;background:#FFFFFF;" version="1.1" viewBox="0 0 303 497" width="303px" zoomAndPan="magnify"><defs/><g><!--cluster TSC Event Logger.lvlib--><g class="cluster" data-entity="TSC Event Logger.lvlib" data-source-line="8" data-uid="ent0003" id="cluster_TSC Event Logger.lvlib"><path d="M8.5,6 L187.8428,6 A3.75,3.75 0 0 1 190.3428,8.5 L197.3428,28.2969 L293.5,28.2969 A2.5,2.5 0 0 1 296,30.7969 L296,487.55 A2.5,2.5 0 0 1 293.5,490.05 L8.5,490.05 A2.5,2.5 0 0 1 6,487.55 L6,8.5 A2.5,2.5 0 0 1 8.5,6" fill="none" style="stroke:#000000;stroke-width:1.5;"/><line style="stroke:#000000;stroke-width:1.5;" x1="6" x2="197.3428" y1="28.2969" y2="28.2969"/><text fill="#000000" font-family="sans-serif" font-size="14" font-weight="bold" lengthAdjust="spacing" textLength="178.3428" x="10" y="20.9951">TSC Event Logger.lvlib</text></g><!--class Log Sinks--><g class="entity" data-entity="Log Sinks" data-source-line="8" data-uid="ent0002" id="entity_Log Sinks"><rect fill="#FFFFFF" height="325.0469" rx="2.5" ry="2.5" style="stroke:#555555;stroke-width:0.5;" width="258.3193" x="21.84" y="41"/><rect fill="#808080" height="32" rx="2.5" ry="2.5" style="stroke:#808080;stroke-width:0.5;" width="258.3193" x="21.84" y="41"/><rect fill="#808080" height="2.5" style="stroke:#808080;stroke-width:0.5;" width="258.3193" x="21.84" y="70.5"/><rect fill="none" height="325.0469" rx="2.5" ry="2.5" style="stroke:#555555;stroke-width:0.5;" width="258.3193" x="21.84" y="41"/><ellipse cx="113.3732" cy="57" fill="#ADD1B2" rx="11" ry="11" style="stroke:#181818;stroke-width:1;"/><path d="M116.342,62.6406 Q115.7638,62.9375 115.1232,63.0781 Q114.4826,63.2344 113.7795,63.2344 Q111.2795,63.2344 109.9513,61.5938 Q108.6388,59.9375 108.6388,56.8125 Q108.6388,53.6875 109.9513,52.0313 Q111.2795,50.375 113.7795,50.375 Q114.4826,50.375 115.1232,50.5313 Q115.7795,50.6875 116.342,50.9844 L116.342,53.7031 Q115.717,53.125 115.1232,52.8594 Q114.5295,52.5781 113.9045,52.5781 Q112.5607,52.5781 111.8732,53.6563 Q111.1857,54.7188 111.1857,56.8125 Q111.1857,58.9063 111.8732,59.9844 Q112.5607,61.0469 113.9045,61.0469 Q114.5295,61.0469 115.1232,60.7813 Q115.717,60.5 116.342,59.9219 L116.342,62.6406 Z " fill="#000000"/><text fill="#000000" font-family="sans-serif" font-size="14" lengthAdjust="spacing" textLength="66.7529" x="133.8732" y="61.8467">Log Sinks</text><line style="stroke:#555555;stroke-width:0.5;" x1="22.84" x2="279.1593" y1="73" y2="73"/><ellipse cx="32.84" cy="86.6484" fill="none" rx="3" ry="3" style="stroke:#038048;stroke-width:1;"/><text fill="#000000" font-family="sans-serif" font-size="14" lengthAdjust="spacing" textLength="96.7012" x="41.84" y="89.9951">Name : String</text><ellipse cx="32.84" cy="102.9453" fill="none" rx="3" ry="3" style="stroke:#038048;stroke-width:1;"/><text fill="#000000" font-family="sans-serif" font-size="14" lengthAdjust="spacing" textLength="192.8896" x="41.84" y="106.292">Minimum Level : Enum U16</text><ellipse cx="32.84" cy="119.2422" fill="none" rx="3" ry="3" style="stroke:#038048;stroke-width:1;"/><text fill="#000000" font-family="sans-serif" font-size="14" lengthAdjust="spacing" textLength="134.5996" x="41.84" y="122.5889">queue ref : NoType</text><rect fill="none" height="6" style="stroke:#C82930;stroke-width:1;" width="6" x="29.84" y="132.5391"/><text fill="#000000" font-family="sans-serif" font-size="14" lengthAdjust="spacing" textLength="121.29" x="41.84" y="138.8857">Active? : Boolean</text><ellipse cx="32.84" cy="151.8359" fill="none" rx="3" ry="3" style="stroke:#038048;stroke-width:1;"/><text fill="#000000" font-family="sans-serif" font-size="14" lengthAdjust="spacing" textLength="119.8682" x="41.84" y="155.1826">Layout : LV Class</text><ellipse cx="32.84" cy="168.1328" fill="none" rx="3" ry="3" style="stroke:#038048;stroke-width:1;"/><text fill="#000000" font-family="sans-serif" font-size="14" lengthAdjust="spacing" textLength="147.4375" x="41.84" y="171.4795">Encryption : LV Class</text><line style="stroke:#555555;stroke-width:0.5;" x1="22.84" x2="279.1593" y1="178.7813" y2="178.7813"/><rect fill="#F24D5C" height="6" style="stroke:#C82930;stroke-width:1;" width="6" x="29.84" y="189.4297"/><text fill="#000000" font-family="sans-serif" font-size="14" lengthAdjust="spacing" text-decoration="underline" textLength="67.252" x="41.84" y="195.7764">Listener()</text><polygon fill="#FFFF44" points="32.84,203.7266,36.84,207.7266,32.84,211.7266,28.84,207.7266" style="stroke:#B38D22;stroke-width:1;"/><text fill="#000000" font-family="sans-serif" font-size="14" lengthAdjust="spacing" text-decoration="underline" textLength="137.6826" x="41.84" y="212.0732">Convert Log Entry()</text><polygon fill="#FFFF44" points="32.84,220.0234,36.84,224.0234,32.84,228.0234,28.84,224.0234" style="stroke:#B38D22;stroke-width:1;"/><text fill="#000000" font-family="sans-serif" font-size="14" lengthAdjust="spacing" text-decoration="underline" textLength="121.3584" x="41.84" y="228.3701">Delete Old Files()</text><ellipse cx="32.84" cy="241.3203" fill="#84BE84" rx="3" ry="3" style="stroke:#038048;stroke-width:1;"/><text fill="#000000" font-family="sans-serif" font-size="14" lengthAdjust="spacing" text-decoration="underline" textLength="95.7168" x="41.84" y="244.667">Get File Info()</text><ellipse cx="32.84" cy="257.6172" fill="#84BE84" rx="3" ry="3" style="stroke:#038048;stroke-width:1;"/><text fill="#000000" font-family="sans-serif" font-size="14" lengthAdjust="spacing" text-decoration="underline" textLength="232.3193" x="41.84" y="260.9639">Windows SYSTEMTIME to String()</text><ellipse cx="32.84" cy="273.9141" fill="#84BE84" rx="3" ry="3" style="stroke:#038048;stroke-width:1;"/><text fill="#000000" font-family="sans-serif" font-size="14" lengthAdjust="spacing" text-decoration="underline" textLength="122.3975" x="41.84" y="277.2607">Launch Listener()</text><ellipse cx="32.84" cy="290.2109" fill="#84BE84" rx="3" ry="3" style="stroke:#038048;stroke-width:1;"/><text fill="#000000" font-family="sans-serif" font-size="14" lengthAdjust="spacing" text-decoration="underline" textLength="40.1953" x="41.84" y="293.5576">Quit()</text><ellipse cx="32.84" cy="306.5078" fill="#84BE84" rx="3" ry="3" style="stroke:#038048;stroke-width:1;"/><text fill="#000000" font-family="sans-serif" font-size="14" lengthAdjust="spacing" text-decoration="underline" textLength="127.2646" x="41.84" y="309.8545">Send Log Packet()</text><polygon fill="#FFFF44" points="32.84,317.8047,36.84,321.8047,32.84,325.8047,28.84,321.8047" style="stroke:#B38D22;stroke-width:1;"/><text fill="#000000" font-family="sans-serif" font-size="14" lengthAdjust="spacing" textLength="49.0615" x="41.84" y="326.1514">Close()</text><polygon fill="#FFFF44" points="32.84,334.1016,36.84,338.1016,32.84,342.1016,28.84,338.1016" style="stroke:#B38D22;stroke-width:1;"/><text fill="#000000" font-family="sans-serif" font-size="14" lengthAdjust="spacing" textLength="132.9043" x="41.84" y="342.4482">Common ini Keys()</text><polygon fill="#FFFF44" points="32.84,350.3984,36.84,354.3984,32.84,358.3984,28.84,354.3984" style="stroke:#B38D22;stroke-width:1;"/><text fill="#000000" font-family="sans-serif" font-size="14" lengthAdjust="spacing" textLength="48.5146" x="41.84" y="358.7451">Write()</text></g><!--class Layout--><g class="entity" data-entity="Layout" data-source-line="28" data-uid="ent0004" id="entity_Layout"><rect fill="#FFFFFF" height="48" rx="2.5" ry="2.5" style="stroke:#555555;stroke-width:0.5;" width="79.5918" x="40.2" y="426.05"/><rect fill="#808080" height="32" rx="2.5" ry="2.5" style="stroke:#808080;stroke-width:0.5;" width="79.5918" x="40.2" y="426.05"/><rect fill="#808080" height="2.5" style="stroke:#808080;stroke-width:0.5;" width="79.5918" x="40.2" y="455.55"/><rect fill="none" height="48" rx="2.5" ry="2.5" style="stroke:#555555;stroke-width:0.5;" width="79.5918" x="40.2" y="426.05"/><ellipse cx="55.2" cy="442.05" fill="#ADD1B2" rx="11" ry="11" style="stroke:#181818;stroke-width:1;"/><path d="M58.1688,447.6906 Q57.5906,447.9875 56.95,448.1281 Q56.3094,448.2844 55.6063,448.2844 Q53.1063,448.2844 51.7781,446.6438 Q50.4656,444.9875 50.4656,441.8625 Q50.4656,438.7375 51.7781,437.0813 Q53.1063,435.425 55.6063,435.425 Q56.3094,435.425 56.95,435.5813 Q57.6063,435.7375 58.1688,436.0344 L58.1688,438.7531 Q57.5438,438.175 56.95,437.9094 Q56.3563,437.6281 55.7313,437.6281 Q54.3875,437.6281 53.7,438.7063 Q53.0125,439.7688 53.0125,441.8625 Q53.0125,443.9563 53.7,445.0344 Q54.3875,446.0969 55.7313,446.0969 Q56.3563,446.0969 56.95,445.8313 Q57.5438,445.55 58.1688,444.9719 L58.1688,447.6906 Z " fill="#000000"/><text fill="#000000" font-family="sans-serif" font-size="14" lengthAdjust="spacing" textLength="47.5918" x="69.2" y="446.8967">Layout</text><line style="stroke:#555555;stroke-width:0.5;" x1="41.2" x2="118.7918" y1="458.05" y2="458.05"/><line style="stroke:#555555;stroke-width:0.5;" x1="41.2" x2="118.7918" y1="466.05" y2="466.05"/></g><!--class Encryption--><g class="entity" data-entity="Encryption" data-source-line="29" data-uid="ent0006" id="entity_Encryption"><rect fill="#FFFFFF" height="48" rx="2.5" ry="2.5" style="stroke:#555555;stroke-width:0.5;" width="107.1611" x="154.42" y="426.05"/><rect fill="#808080" height="32" rx="2.5" ry="2.5" style="stroke:#808080;stroke-width:0.5;" width="107.1611" x="154.42" y="426.05"/><rect fill="#808080" height="2.5" style="stroke:#808080;stroke-width:0.5;" width="107.1611" x="154.42" y="455.55"/><rect fill="none" height="48" rx="2.5" ry="2.5" style="stroke:#555555;stroke-width:0.5;" width="107.1611" x="154.42" y="426.05"/><ellipse cx="169.42" cy="442.05" fill="#ADD1B2" rx="11" ry="11" style="stroke:#181818;stroke-width:1;"/><path d="M172.3888,447.6906 Q171.8106,447.9875 171.17,448.1281 Q170.5294,448.2844 169.8263,448.2844 Q167.3263,448.2844 165.9981,446.6438 Q164.6856,444.9875 164.6856,441.8625 Q164.6856,438.7375 165.9981,437.0813 Q167.3263,435.425 169.8263,435.425 Q170.5294,435.425 171.17,435.5813 Q171.8263,435.7375 172.3888,436.0344 L172.3888,438.7531 Q171.7638,438.175 171.17,437.9094 Q170.5763,437.6281 169.9513,437.6281 Q168.6075,437.6281 167.92,438.7063 Q167.2325,439.7688 167.2325,441.8625 Q167.2325,443.9563 167.92,445.0344 Q168.6075,446.0969 169.9513,446.0969 Q170.5763,446.0969 171.17,445.8313 Q171.7638,445.55 172.3888,444.9719 L172.3888,447.6906 Z " fill="#000000"/><text fill="#000000" font-family="sans-serif" font-size="14" lengthAdjust="spacing" textLength="75.1611" x="183.42" y="446.8967">Encryption</text><line style="stroke:#555555;stroke-width:0.5;" x1="155.42" x2="260.5811" y1="458.05" y2="458.05"/><line style="stroke:#555555;stroke-width:0.5;" x1="155.42" x2="260.5811" y1="466.05" y2="466.05"/></g><!--reverse link Log Sinks to Layout--><g class="link" data-entity-1="Log Sinks" data-entity-2="Layout" data-source-line="28" data-uid="lnk5" id="link_Log Sinks_Layout"><path codeLine="28" d="M100.691,377.7932 C93.931,401.0532 91.14,410.67 86.76,425.76" fill="none" id="Log Sinks-backto-Layout" style="stroke:#181818;stroke-width:1;"/><polygon fill="#181818" points="104.04,366.27,98.5244,370.9153,100.691,377.7932,106.2066,373.1479,104.04,366.27" style="stroke:#181818;stroke-width:1;"/></g><!--reverse link Log Sinks to Encryption--><g class="link" data-entity-1="Log Sinks" data-entity-2="Encryption" data-source-line="29" data-uid="lnk7" id="link_Log Sinks_Encryption"><path codeLine="29" d="M191.428,377.9558 C196.858,401.2158 199.05,410.67 202.57,425.76" fill="none" id="Log Sinks-backto-Encryption" style="stroke:#181818;stroke-width:1;"/><polygon fill="#181818" points="188.7,366.27,186.1687,373.0222,191.428,377.9558,193.9593,371.2036,188.7,366.27" style="stroke:#181818;stroke-width:1;"/></g><!--SRC=[fP9HJzim4CVV_IbExSj6rOazR49zcKP90Irbcr90FBh9jLXrxZBxaYcg-jrnKhHGo10IZl9m_lzyzl_kF0gGpj4NEiK42-sqi8E9yXj3JPJ3r6hlJtMwMJikAPko3S1mrguN6BiCtIFofLtFaHcJF0B7xNeENA0EELvSU7BSVEe9BLo47vOimZbanc4gXacbJHOOB98fH1MIGCphDRfFjh9cEGa198OsVW1RjLqPjDaEHbUX1Z21H9oXTRSzDsJoCeSOAxH1ZoW4rv-_TiIV4ai4XwkWNl6YBl2VDluUtbFXjw2SCblKr1sBTSsb12M-sRlkf8XILnUDamFPYnQJxc2ReznpapusNf3GVVZOemwdJ1MwrdnujhYw7pj3YuBmqsOmCnPzBpKw3sFIo719A-v7RWrb_DT3SfSieldYSXurpTaNjFz4h4jAx-5L6wFVfP5-9K7AMdU_mgXW2tNcBNiytE4y3nKD_OGVMFi3xTOPQMYrKs-OcgFn-F_3rRPryDuqtGWCb58F]--></g></svg>