<svg xmlns="http://www.w3.org/2000/svg" xmlns:xlink="http://www.w3.org/1999/xlink" contentStyleType="text/css" data-diagram-type="CLASS" height="448px" preserveAspectRatio="none" style="width:301px;height:448px;background:#FFFFFF;" version="1.1" viewBox="0 0 301 448" width="301px" zoomAndPan="magnify"><defs/><g><!--cluster TSC Event Logger.lvlib--><g class="cluster" data-entity="TSC Event Logger.lvlib" data-source-line="8" data-uid="ent0003" id="cluster_TSC Event Logger.lvlib"><path d="M8.5,6 L187.8428,6 A3.75,3.75 0 0 1 190.3428,8.5 L197.3428,28.2969 L291.5,28.2969 A2.5,2.5 0 0 1 294,30.7969 L294,438.66 A2.5,2.5 0 0 1 291.5,441.16 L8.5,441.16 A2.5,2.5 0 0 1 6,438.66 L6,8.5 A2.5,2.5 0 0 1 8.5,6" fill="none" style="stroke:#000000;stroke-width:1.5;"/><line style="stroke:#000000;stroke-width:1.5;" x1="6" x2="197.3428" y1="28.2969" y2="28.2969"/><text fill="#000000" font-family="sans-serif" font-size="14" font-weight="bold" lengthAdjust="spacing" textLength="178.3428" x="10" y="20.9951">TSC Event Logger.lvlib</text></g><!--class Text File--><g class="entity" data-entity="Text File" data-source-line="8" data-uid="ent0002" id="entity_Text File"><rect fill="#FFFFFF" height="276.1563" rx="2.5" ry="2.5" style="stroke:#555555;stroke-width:0.5;" width="256.3369" x="21.83" y="149"/><rect fill="#808080" height="32" rx="2.5" ry="2.5" style="stroke:#808080;stroke-width:0.5;" width="256.3369" x="21.83" y="149"/><rect fill="#808080" height="2.5" style="stroke:#808080;stroke-width:0.5;" width="256.3369" x="21.83" y="178.5"/><rect fill="none" height="276.1563" rx="2.5" ry="2.5" style="stroke:#555555;stroke-width:0.5;" width="256.3369" x="21.83" y="149"/><ellipse cx="115.831" cy="165" fill="#ADD1B2" rx="11" ry="11" style="stroke:#181818;stroke-width:1;"/><path d="M118.7997,170.6406 Q118.2216,170.9375 117.581,171.0781 Q116.9404,171.2344 116.2372,171.2344 Q113.7372,171.2344 112.4091,169.5938 Q111.0966,167.9375 111.0966,164.8125 Q111.0966,161.6875 112.4091,160.0313 Q113.7372,158.375 116.2372,158.375 Q116.9404,158.375 117.581,158.5313 Q118.2372,158.6875 118.7997,158.9844 L118.7997,161.7031 Q118.1747,161.125 117.581,160.8594 Q116.9872,160.5781 116.3622,160.5781 Q115.0185,160.5781 114.331,161.6563 Q113.6435,162.7188 113.6435,164.8125 Q113.6435,166.9063 114.331,167.9844 Q115.0185,169.0469 116.3622,169.0469 Q116.9872,169.0469 117.581,168.7813 Q118.1747,168.5 118.7997,167.9219 L118.7997,170.6406 Z " fill="#000000"/><text fill="#000000" font-family="sans-serif" font-size="14" lengthAdjust="spacing" textLength="59.835" x="136.331" y="169.8467">Text File</text><line style="stroke:#555555;stroke-width:0.5;" x1="22.83" x2="277.1669" y1="181" y2="181"/><ellipse cx="32.83" cy="194.6484" fill="none" rx="3" ry="3" style="stroke:#038048;stroke-width:1;"/><text fill="#000000" font-family="sans-serif" font-size="14" lengthAdjust="spacing" textLength="88.3135" x="41.83" y="197.9951">file : NoType</text><rect fill="none" height="6" style="stroke:#C82930;stroke-width:1;" width="6" x="29.83" y="207.9453"/><text fill="#000000" font-family="sans-serif" font-size="14" lengthAdjust="spacing" textLength="147.1094" x="41.83" y="214.292">name-format : String</text><rect fill="none" height="6" style="stroke:#C82930;stroke-width:1;" width="6" x="29.83" y="224.2422"/><text fill="#000000" font-family="sans-serif" font-size="14" lengthAdjust="spacing" textLength="149.666" x="41.83" y="230.5889">file extension : String</text><rect fill="none" height="6" style="stroke:#C82930;stroke-width:1;" width="6" x="29.83" y="240.5391"/><text fill="#000000" font-family="sans-serif" font-size="14" lengthAdjust="spacing" textLength="100.5498" x="41.83" y="246.8857">location : Path</text><rect fill="none" height="6" style="stroke:#C82930;stroke-width:1;" width="6" x="29.83" y="256.8359"/><text fill="#000000" font-family="sans-serif" font-size="14" lengthAdjust="spacing" textLength="230.3369" x="41.83" y="263.1826">Max File Size (MB) : Double Float</text><rect fill="none" height="6" style="stroke:#C82930;stroke-width:1;" width="6" x="29.83" y="273.1328"/><text fill="#000000" font-family="sans-serif" font-size="14" lengthAdjust="spacing" textLength="131.4004" x="41.83" y="279.4795">N Day Buffer : U32</text><line style="stroke:#555555;stroke-width:0.5;" x1="22.83" x2="277.1669" y1="286.7813" y2="286.7813"/><polygon fill="#FFFF44" points="32.83,295.4297,36.83,299.4297,32.83,303.4297,28.83,299.4297" style="stroke:#B38D22;stroke-width:1;"/><text fill="#000000" font-family="sans-serif" font-size="14" lengthAdjust="spacing" text-decoration="underline" textLength="100.3311" x="41.83" y="303.7764">Cast to Child()</text><polygon fill="#FFFF44" points="32.83,311.7266,36.83,315.7266,32.83,319.7266,28.83,315.7266" style="stroke:#B38D22;stroke-width:1;"/><text fill="#000000" font-family="sans-serif" font-size="14" lengthAdjust="spacing" text-decoration="underline" textLength="116.0742" x="41.83" y="320.0732">Check File Size()</text><polygon fill="#FFFF44" points="32.83,328.0234,36.83,332.0234,32.83,336.0234,28.83,332.0234" style="stroke:#B38D22;stroke-width:1;"/><text fill="#000000" font-family="sans-serif" font-size="14" lengthAdjust="spacing" text-decoration="underline" textLength="70.3555" x="41.83" y="336.3701">New File()</text><ellipse cx="32.83" cy="349.3203" fill="#84BE84" rx="3" ry="3" style="stroke:#038048;stroke-width:1;"/><text fill="#000000" font-family="sans-serif" font-size="14" lengthAdjust="spacing" text-decoration="underline" textLength="117.1338" x="41.83" y="352.667">Construct - File()</text><ellipse cx="32.83" cy="365.6172" fill="#84BE84" rx="3" ry="3" style="stroke:#038048;stroke-width:1;"/><text fill="#000000" font-family="sans-serif" font-size="14" lengthAdjust="spacing" text-decoration="underline" textLength="128.9395" x="41.83" y="368.9639">Construct - Input()</text><ellipse cx="32.83" cy="381.9141" fill="#84BE84" rx="3" ry="3" style="stroke:#038048;stroke-width:1;"/><text fill="#000000" font-family="sans-serif" font-size="14" lengthAdjust="spacing" text-decoration="underline" textLength="78.7363" x="41.83" y="385.2607">Construct()</text><polygon fill="#FFFF44" points="32.83,393.2109,36.83,397.2109,32.83,401.2109,28.83,397.2109" style="stroke:#B38D22;stroke-width:1;"/><text fill="#000000" font-family="sans-serif" font-size="14" lengthAdjust="spacing" textLength="49.0615" x="41.83" y="401.5576">Close()</text><polygon fill="#FFFF44" points="32.83,409.5078,36.83,413.5078,32.83,417.5078,28.83,413.5078" style="stroke:#B38D22;stroke-width:1;"/><text fill="#000000" font-family="sans-serif" font-size="14" lengthAdjust="spacing" textLength="48.5146" x="41.83" y="417.8545">Write()</text></g><!--class Log Sinks--><g class="entity" data-entity="Log Sinks" data-source-line="25" data-uid="ent0004" id="entity_Log Sinks"><rect fill="#FFFFFF" height="48" rx="2.5" ry="2.5" style="stroke:#555555;stroke-width:0.5;" width="98.7529" x="100.62" y="41"/><rect fill="#808080" height="32" rx="2.5" ry="2.5" style="stroke:#808080;stroke-width:0.5;" width="98.7529" x="100.62" y="41"/><rect fill="#808080" height="2.5" style="stroke:#808080;stroke-width:0.5;" width="98.7529" x="100.62" y="70.5"/><rect fill="none" height="48" rx="2.5" ry="2.5" style="stroke:#555555;stroke-width:0.5;" width="98.7529" x="100.62" y="41"/><ellipse cx="115.62" cy="57" fill="#ADD1B2" rx="11" ry="11" style="stroke:#181818;stroke-width:1;"/><path d="M118.5888,62.6406 Q118.0106,62.9375 117.37,63.0781 Q116.7294,63.2344 116.0263,63.2344 Q113.5263,63.2344 112.1981,61.5938 Q110.8856,59.9375 110.8856,56.8125 Q110.8856,53.6875 112.1981,52.0313 Q113.5263,50.375 116.0263,50.375 Q116.7294,50.375 117.37,50.5313 Q118.0263,50.6875 118.5888,50.9844 L118.5888,53.7031 Q117.9638,53.125 117.37,52.8594 Q116.7763,52.5781 116.1513,52.5781 Q114.8075,52.5781 114.12,53.6563 Q113.4325,54.7188 113.4325,56.8125 Q113.4325,58.9063 114.12,59.9844 Q114.8075,61.0469 116.1513,61.0469 Q116.7763,61.0469 117.37,60.7813 Q117.9638,60.5 118.5888,59.9219 L118.5888,62.6406 Z " fill="#000000"/><text fill="#000000" font-family="sans-serif" font-size="14" lengthAdjust="spacing" textLength="66.7529" x="129.62" y="61.8467">Log Sinks</text><line style="stroke:#555555;stroke-width:0.5;" x1="101.62" x2="198.3729" y1="73" y2="73"/><line style="stroke:#555555;stroke-width:0.5;" x1="101.62" x2="198.3729" y1="81" y2="81"/></g><!--reverse link Log Sinks to Text File--><g class="link" data-entity-1="Log Sinks" data-entity-2="Text File" data-source-line="25" data-uid="lnk5" id="link_Log Sinks_Text File"><path codeLine="25" d="M150,107.14 C150,122.37 150,125.7 150,148.73" fill="none" id="Log Sinks-backto-Text File" style="stroke:#181818;stroke-width:1;"/><polygon fill="none" points="150,89.14,144,107.14,156,107.14,150,89.14" style="stroke:#181818;stroke-width:1;"/></g><!--SRC=[ZP5HJy8m4CVV-oaky08nCqHZOeXF31TDX9Y0yRbiDsZMzPRsXY3otUqcSGepSaqVxl__zQxjEMGmCaTNo1XdM4WhcImCXSkKgR8SGYsT6yauMregJHAIza0tgkC48vkWFI0tTHmZ4Ha-08CwZe47bBx6ISFRGRN43vgfy1iMn4mv9CfYp8gCYAigq9dFGhXVes5uekKIxQLUQxKOpd7342cD7TY9NQfG9tkuIBq0GvZIV5lWjnnKNnEaP7F9tfsnLMRPkFKXNmwDytrR04snv2_hMVAgCIPoKzy1PkeTeJSPzJqofdBXfKYJv0QTmbXkOLIcAVgvmClrbTWvzcNZFUnov1LvgXjAnzLdX2kbarw_5LbXd3LTsw4fljL8gtiHad5iovWXE9DwD4N9_s2LtTnIayDVogjLN2bYB_wQgK_ycqpcEd3t4GHdp5u8yGa0]--></g></svg>