<svg xmlns="http://www.w3.org/2000/svg" xmlns:xlink="http://www.w3.org/1999/xlink" contentStyleType="text/css" data-diagram-type="CLASS" height="898px" preserveAspectRatio="none" style="width:976px;height:898px;background:#FFFFFF;" version="1.1" viewBox="0 0 976 898" width="976px" zoomAndPan="magnify"><defs/><g><!--cluster TSC Event Logger.lvlib--><g class="cluster" data-entity="TSC Event Logger.lvlib" data-source-line="8" data-uid="ent0003" id="cluster_TSC Event Logger.lvlib"><path d="M8.5,6 L187.8428,6 A3.75,3.75 0 0 1 190.3428,8.5 L197.3428,28.2969 L966.5,28.2969 A2.5,2.5 0 0 1 969,30.7969 L969,888.89 A2.5,2.5 0 0 1 966.5,891.39 L8.5,891.39 A2.5,2.5 0 0 1 6,888.89 L6,8.5 A2.5,2.5 0 0 1 8.5,6" fill="none" style="stroke:#000000;stroke-width:1.5;"/><line style="stroke:#000000;stroke-width:1.5;" x1="6" x2="197.3428" y1="28.2969" y2="28.2969"/><text fill="#000000" font-family="sans-serif" font-size="14" font-weight="bold" lengthAdjust="spacing" textLength="178.3428" x="10" y="20.9951">TSC Event Logger.lvlib</text></g><!--class Log Sinks--><g class="entity" data-entity="Log Sinks" data-source-line="8" data-uid="ent0002" id="entity_Log Sinks"><rect fill="#FFFFFF" height="325.0469" rx="2.5" ry="2.5" style="stroke:#555555;stroke-width:0.5;" width="258.3193" x="421.84" y="41"/><rect fill="#808080" height="32" rx="2.5" ry="2.5" style="stroke:#808080;stroke-width:0.5;" width="258.3193" x="421.84" y="41"/><rect fill="#808080" height="2.5" style="stroke:#808080;stroke-width:0.5;" width="258.3193" x="421.84" y="70.5"/><rect fill="none" height="325.0469" rx="2.5" ry="2.5" style="stroke:#555555;stroke-width:0.5;" width="258.3193" x="421.84" y="41"/><ellipse cx="513.3732" cy="57" fill="#ADD1B2" rx="11" ry="11" style="stroke:#181818;stroke-width:1;"/><path d="M516.342,62.6406 Q515.7638,62.9375 515.1232,63.0781 Q514.4826,63.2344 513.7795,63.2344 Q511.2795,63.2344 509.9513,61.5938 Q508.6388,59.9375 508.6388,56.8125 Q508.6388,53.6875 509.9513,52.0313 Q511.2795,50.375 513.7795,50.375 Q514.4826,50.375 515.1232,50.5313 Q515.7795,50.6875 516.342,50.9844 L516.342,53.7031 Q515.717,53.125 515.1232,52.8594 Q514.5295,52.5781 513.9045,52.5781 Q512.5607,52.5781 511.8732,53.6563 Q511.1857,54.7188 511.1857,56.8125 Q511.1857,58.9063 511.8732,59.9844 Q512.5607,61.0469 513.9045,61.0469 Q514.5295,61.0469 515.1232,60.7813 Q515.717,60.5 516.342,59.9219 L516.342,62.6406 Z " fill="#000000"/><text fill="#000000" font-family="sans-serif" font-size="14" lengthAdjust="spacing" textLength="66.7529" x="533.8732" y="61.8467">Log Sinks</text><line style="stroke:#555555;stroke-width:0.5;" x1="422.84" x2="679.1593" y1="73" y2="73"/><ellipse cx="432.84" cy="86.6484" fill="none" rx="3" ry="3" style="stroke:#038048;stroke-width:1;"/><text fill="#000000" font-family="sans-serif" font-size="14" lengthAdjust="spacing" textLength="96.7012" x="441.84" y="89.9951">Name : String</text><ellipse cx="432.84" cy="102.9453" fill="none" rx="3" ry="3" style="stroke:#038048;stroke-width:1;"/><text fill="#000000" font-family="sans-serif" font-size="14" lengthAdjust="spacing" textLength="192.8896" x="441.84" y="106.292">Minimum Level : Enum U16</text><ellipse cx="432.84" cy="119.2422" fill="none" rx="3" ry="3" style="stroke:#038048;stroke-width:1;"/><text fill="#000000" font-family="sans-serif" font-size="14" lengthAdjust="spacing" textLength="134.5996" x="441.84" y="122.5889">queue ref : NoType</text><rect fill="none" height="6" style="stroke:#C82930;stroke-width:1;" width="6" x="429.84" y="132.5391"/><text fill="#000000" font-family="sans-serif" font-size="14" lengthAdjust="spacing" textLength="121.29" x="441.84" y="138.8857">Active? : Boolean</text><ellipse cx="432.84" cy="151.8359" fill="none" rx="3" ry="3" style="stroke:#038048;stroke-width:1;"/><text fill="#000000" font-family="sans-serif" font-size="14" lengthAdjust="spacing" textLength="119.8682" x="441.84" y="155.1826">Layout : LV Class</text><ellipse cx="432.84" cy="168.1328" fill="none" rx="3" ry="3" style="stroke:#038048;stroke-width:1;"/><text fill="#000000" font-family="sans-serif" font-size="14" lengthAdjust="spacing" textLength="147.4375" x="441.84" y="171.4795">Encryption : LV Class</text><line style="stroke:#555555;stroke-width:0.5;" x1="422.84" x2="679.1593" y1="178.7813" y2="178.7813"/><rect fill="#F24D5C" height="6" style="stroke:#C82930;stroke-width:1;" width="6" x="429.84" y="189.4297"/><text fill="#000000" font-family="sans-serif" font-size="14" lengthAdjust="spacing" text-decoration="underline" textLength="67.252" x="441.84" y="195.7764">Listener()</text><polygon fill="#FFFF44" points="432.84,203.7266,436.84,207.7266,432.84,211.7266,428.84,207.7266" style="stroke:#B38D22;stroke-width:1;"/><text fill="#000000" font-family="sans-serif" font-size="14" lengthAdjust="spacing" text-decoration="underline" textLength="137.6826" x="441.84" y="212.0732">Convert Log Entry()</text><polygon fill="#FFFF44" points="432.84,220.0234,436.84,224.0234,432.84,228.0234,428.84,224.0234" style="stroke:#B38D22;stroke-width:1;"/><text fill="#000000" font-family="sans-serif" font-size="14" lengthAdjust="spacing" text-decoration="underline" textLength="121.3584" x="441.84" y="228.3701">Delete Old Files()</text><ellipse cx="432.84" cy="241.3203" fill="#84BE84" rx="3" ry="3" style="stroke:#038048;stroke-width:1;"/><text fill="#000000" font-family="sans-serif" font-size="14" lengthAdjust="spacing" text-decoration="underline" textLength="95.7168" x="441.84" y="244.667">Get File Info()</text><ellipse cx="432.84" cy="257.6172" fill="#84BE84" rx="3" ry="3" style="stroke:#038048;stroke-width:1;"/><text fill="#000000" font-family="sans-serif" font-size="14" lengthAdjust="spacing" text-decoration="underline" textLength="232.3193" x="441.84" y="260.9639">Windows SYSTEMTIME to String()</text><ellipse cx="432.84" cy="273.9141" fill="#84BE84" rx="3" ry="3" style="stroke:#038048;stroke-width:1;"/><text fill="#000000" font-family="sans-serif" font-size="14" lengthAdjust="spacing" text-decoration="underline" textLength="122.3975" x="441.84" y="277.2607">Launch Listener()</text><ellipse cx="432.84" cy="290.2109" fill="#84BE84" rx="3" ry="3" style="stroke:#038048;stroke-width:1;"/><text fill="#000000" font-family="sans-serif" font-size="14" lengthAdjust="spacing" text-decoration="underline" textLength="40.1953" x="441.84" y="293.5576">Quit()</text><ellipse cx="432.84" cy="306.5078" fill="#84BE84" rx="3" ry="3" style="stroke:#038048;stroke-width:1;"/><text fill="#000000" font-family="sans-serif" font-size="14" lengthAdjust="spacing" text-decoration="underline" textLength="127.2646" x="441.84" y="309.8545">Send Log Packet()</text><polygon fill="#FFFF44" points="432.84,317.8047,436.84,321.8047,432.84,325.8047,428.84,321.8047" style="stroke:#B38D22;stroke-width:1;"/><text fill="#000000" font-family="sans-serif" font-size="14" lengthAdjust="spacing" textLength="49.0615" x="441.84" y="326.1514">Close()</text><polygon fill="#FFFF44" points="432.84,334.1016,436.84,338.1016,432.84,342.1016,428.84,338.1016" style="stroke:#B38D22;stroke-width:1;"/><text fill="#000000" font-family="sans-serif" font-size="14" lengthAdjust="spacing" textLength="132.9043" x="441.84" y="342.4482">Common ini Keys()</text><polygon fill="#FFFF44" points="432.84,350.3984,436.84,354.3984,432.84,358.3984,428.84,354.3984" style="stroke:#B38D22;stroke-width:1;"/><text fill="#000000" font-family="sans-serif" font-size="14" lengthAdjust="spacing" textLength="48.5146" x="441.84" y="358.7451">Write()</text></g><!--class Layout--><g class="entity" data-entity="Layout" data-source-line="28" data-uid="ent0004" id="entity_Layout"><rect fill="#FFFFFF" height="96.8906" rx="2.5" ry="2.5" style="stroke:#555555;stroke-width:0.5;" width="192.2363" x="21.88" y="515.68"/><rect fill="#808080" height="32" rx="2.5" ry="2.5" style="stroke:#808080;stroke-width:0.5;" width="192.2363" x="21.88" y="515.68"/><rect fill="#808080" height="2.5" style="stroke:#808080;stroke-width:0.5;" width="192.2363" x="21.88" y="545.18"/><rect fill="none" height="96.8906" rx="2.5" ry="2.5" style="stroke:#555555;stroke-width:0.5;" width="192.2363" x="21.88" y="515.68"/><ellipse cx="89.9523" cy="531.68" fill="#ADD1B2" rx="11" ry="11" style="stroke:#181818;stroke-width:1;"/><path d="M92.921,537.3206 Q92.3429,537.6175 91.7023,537.7581 Q91.0616,537.9144 90.3585,537.9144 Q87.8585,537.9144 86.5304,536.2738 Q85.2179,534.6175 85.2179,531.4925 Q85.2179,528.3675 86.5304,526.7113 Q87.8585,525.055 90.3585,525.055 Q91.0616,525.055 91.7023,525.2113 Q92.3585,525.3675 92.921,525.6644 L92.921,528.3831 Q92.296,527.805 91.7023,527.5394 Q91.1085,527.2581 90.4835,527.2581 Q89.1398,527.2581 88.4523,528.3363 Q87.7648,529.3988 87.7648,531.4925 Q87.7648,533.5863 88.4523,534.6644 Q89.1398,535.7269 90.4835,535.7269 Q91.1085,535.7269 91.7023,535.4613 Q92.296,535.18 92.921,534.6019 L92.921,537.3206 Z " fill="#000000"/><text fill="#000000" font-family="sans-serif" font-size="14" lengthAdjust="spacing" textLength="47.5918" x="110.4523" y="536.5267">Layout</text><line style="stroke:#555555;stroke-width:0.5;" x1="22.88" x2="213.1163" y1="547.68" y2="547.68"/><line style="stroke:#555555;stroke-width:0.5;" x1="22.88" x2="213.1163" y1="555.68" y2="555.68"/><ellipse cx="32.88" cy="569.3284" fill="#84BE84" rx="3" ry="3" style="stroke:#038048;stroke-width:1;"/><text fill="#000000" font-family="sans-serif" font-size="14" lengthAdjust="spacing" text-decoration="underline" textLength="148.3809" x="41.88" y="572.6751">Replace Arguments()</text><ellipse cx="32.88" cy="585.6253" fill="#84BE84" rx="3" ry="3" style="stroke:#038048;stroke-width:1;"/><text fill="#000000" font-family="sans-serif" font-size="14" lengthAdjust="spacing" text-decoration="underline" textLength="166.2363" x="41.88" y="588.972">Time String Formatter()</text><ellipse cx="32.88" cy="601.9222" fill="#84BE84" rx="3" ry="3" style="stroke:#038048;stroke-width:1;"/><text fill="#000000" font-family="sans-serif" font-size="14" lengthAdjust="spacing" textLength="102.7031" x="41.88" y="605.2689">Format Entry()</text></g><!--class Encryption--><g class="entity" data-entity="Encryption" data-source-line="29" data-uid="ent0006" id="entity_Encryption"><rect fill="#FFFFFF" height="145.7813" rx="2.5" ry="2.5" style="stroke:#555555;stroke-width:0.5;" width="193.5078" x="249.25" y="491.23"/><rect fill="#808080" height="32" rx="2.5" ry="2.5" style="stroke:#808080;stroke-width:0.5;" width="193.5078" x="249.25" y="491.23"/><rect fill="#808080" height="2.5" style="stroke:#808080;stroke-width:0.5;" width="193.5078" x="249.25" y="520.73"/><rect fill="none" height="145.7813" rx="2.5" ry="2.5" style="stroke:#555555;stroke-width:0.5;" width="193.5078" x="249.25" y="491.23"/><ellipse cx="304.1733" cy="507.23" fill="#ADD1B2" rx="11" ry="11" style="stroke:#181818;stroke-width:1;"/><path d="M307.1421,512.8706 Q306.564,513.1675 305.9233,513.3081 Q305.2827,513.4644 304.5796,513.4644 Q302.0796,513.4644 300.7515,511.8238 Q299.439,510.1675 299.439,507.0425 Q299.439,503.9175 300.7515,502.2613 Q302.0796,500.605 304.5796,500.605 Q305.2827,500.605 305.9233,500.7613 Q306.5796,500.9175 307.1421,501.2144 L307.1421,503.9331 Q306.5171,503.355 305.9233,503.0894 Q305.3296,502.8081 304.7046,502.8081 Q303.3608,502.8081 302.6733,503.8863 Q301.9858,504.9488 301.9858,507.0425 Q301.9858,509.1363 302.6733,510.2144 Q303.3608,511.2769 304.7046,511.2769 Q305.3296,511.2769 305.9233,511.0113 Q306.5171,510.73 307.1421,510.1519 L307.1421,512.8706 Z " fill="#000000"/><text fill="#000000" font-family="sans-serif" font-size="14" lengthAdjust="spacing" textLength="75.1611" x="324.6733" y="512.0767">Encryption</text><line style="stroke:#555555;stroke-width:0.5;" x1="250.25" x2="441.7578" y1="523.23" y2="523.23"/><polygon fill="none" points="260.25,531.8784,264.25,535.8784,260.25,539.8784,256.25,535.8784" style="stroke:#B38D22;stroke-width:1;"/><text fill="#000000" font-family="sans-serif" font-size="14" lengthAdjust="spacing" textLength="90.2139" x="269.25" y="540.2251">SALT : String</text><ellipse cx="260.25" cy="553.1753" fill="none" rx="3" ry="3" style="stroke:#038048;stroke-width:1;"/><text fill="#000000" font-family="sans-serif" font-size="14" lengthAdjust="spacing" textLength="136.4932" x="269.25" y="556.522">SALT location : U16</text><ellipse cx="260.25" cy="569.4722" fill="none" rx="3" ry="3" style="stroke:#038048;stroke-width:1;"/><text fill="#000000" font-family="sans-serif" font-size="14" lengthAdjust="spacing" textLength="167.5078" x="269.25" y="572.8189">Multiplier : Double Float</text><line style="stroke:#555555;stroke-width:0.5;" x1="250.25" x2="441.7578" y1="580.1206" y2="580.1206"/><ellipse cx="260.25" cy="593.7691" fill="#84BE84" rx="3" ry="3" style="stroke:#038048;stroke-width:1;"/><text fill="#000000" font-family="sans-serif" font-size="14" lengthAdjust="spacing" text-decoration="underline" textLength="137.3613" x="269.25" y="597.1157">Create Encryption()</text><ellipse cx="260.25" cy="610.0659" fill="#84BE84" rx="3" ry="3" style="stroke:#038048;stroke-width:1;"/><text fill="#000000" font-family="sans-serif" font-size="14" lengthAdjust="spacing" textLength="66.4316" x="269.25" y="613.4126">Decrypt()</text><ellipse cx="260.25" cy="626.3628" fill="#84BE84" rx="3" ry="3" style="stroke:#038048;stroke-width:1;"/><text fill="#000000" font-family="sans-serif" font-size="14" lengthAdjust="spacing" textLength="64.7568" x="269.25" y="629.7095">Encrypt()</text></g><!--class Text File--><g class="entity" data-entity="Text File" data-source-line="32" data-uid="ent0008" id="entity_Text File"><rect fill="#FFFFFF" height="276.1563" rx="2.5" ry="2.5" style="stroke:#555555;stroke-width:0.5;" width="256.3369" x="477.83" y="426.05"/><rect fill="#808080" height="32" rx="2.5" ry="2.5" style="stroke:#808080;stroke-width:0.5;" width="256.3369" x="477.83" y="426.05"/><rect fill="#808080" height="2.5" style="stroke:#808080;stroke-width:0.5;" width="256.3369" x="477.83" y="455.55"/><rect fill="none" height="276.1563" rx="2.5" ry="2.5" style="stroke:#555555;stroke-width:0.5;" width="256.3369" x="477.83" y="426.05"/><ellipse cx="571.831" cy="442.05" fill="#ADD1B2" rx="11" ry="11" style="stroke:#181818;stroke-width:1;"/><path d="M574.7997,447.6906 Q574.2216,447.9875 573.581,448.1281 Q572.9404,448.2844 572.2372,448.2844 Q569.7372,448.2844 568.4091,446.6438 Q567.0966,444.9875 567.0966,441.8625 Q567.0966,438.7375 568.4091,437.0813 Q569.7372,435.425 572.2372,435.425 Q572.9404,435.425 573.581,435.5813 Q574.2372,435.7375 574.7997,436.0344 L574.7997,438.7531 Q574.1747,438.175 573.581,437.9094 Q572.9872,437.6281 572.3622,437.6281 Q571.0185,437.6281 570.331,438.7063 Q569.6435,439.7688 569.6435,441.8625 Q569.6435,443.9563 570.331,445.0344 Q571.0185,446.0969 572.3622,446.0969 Q572.9872,446.0969 573.581,445.8313 Q574.1747,445.55 574.7997,444.9719 L574.7997,447.6906 Z " fill="#000000"/><text fill="#000000" font-family="sans-serif" font-size="14" lengthAdjust="spacing" textLength="59.835" x="592.331" y="446.8967">Text File</text><line style="stroke:#555555;stroke-width:0.5;" x1="478.83" x2="733.1669" y1="458.05" y2="458.05"/><ellipse cx="488.83" cy="471.6984" fill="none" rx="3" ry="3" style="stroke:#038048;stroke-width:1;"/><text fill="#000000" font-family="sans-serif" font-size="14" lengthAdjust="spacing" textLength="88.3135" x="497.83" y="475.0451">file : NoType</text><rect fill="none" height="6" style="stroke:#C82930;stroke-width:1;" width="6" x="485.83" y="484.9953"/><text fill="#000000" font-family="sans-serif" font-size="14" lengthAdjust="spacing" textLength="147.1094" x="497.83" y="491.342">name-format : String</text><rect fill="none" height="6" style="stroke:#C82930;stroke-width:1;" width="6" x="485.83" y="501.2922"/><text fill="#000000" font-family="sans-serif" font-size="14" lengthAdjust="spacing" textLength="149.666" x="497.83" y="507.6389">file extension : String</text><rect fill="none" height="6" style="stroke:#C82930;stroke-width:1;" width="6" x="485.83" y="517.5891"/><text fill="#000000" font-family="sans-serif" font-size="14" lengthAdjust="spacing" textLength="100.5498" x="497.83" y="523.9357">location : Path</text><rect fill="none" height="6" style="stroke:#C82930;stroke-width:1;" width="6" x="485.83" y="533.8859"/><text fill="#000000" font-family="sans-serif" font-size="14" lengthAdjust="spacing" textLength="230.3369" x="497.83" y="540.2326">Max File Size (MB) : Double Float</text><rect fill="none" height="6" style="stroke:#C82930;stroke-width:1;" width="6" x="485.83" y="550.1828"/><text fill="#000000" font-family="sans-serif" font-size="14" lengthAdjust="spacing" textLength="131.4004" x="497.83" y="556.5295">N Day Buffer : U32</text><line style="stroke:#555555;stroke-width:0.5;" x1="478.83" x2="733.1669" y1="563.8313" y2="563.8313"/><polygon fill="#FFFF44" points="488.83,572.4797,492.83,576.4797,488.83,580.4797,484.83,576.4797" style="stroke:#B38D22;stroke-width:1;"/><text fill="#000000" font-family="sans-serif" font-size="14" lengthAdjust="spacing" text-decoration="underline" textLength="100.3311" x="497.83" y="580.8264">Cast to Child()</text><polygon fill="#FFFF44" points="488.83,588.7766,492.83,592.7766,488.83,596.7766,484.83,592.7766" style="stroke:#B38D22;stroke-width:1;"/><text fill="#000000" font-family="sans-serif" font-size="14" lengthAdjust="spacing" text-decoration="underline" textLength="116.0742" x="497.83" y="597.1232">Check File Size()</text><polygon fill="#FFFF44" points="488.83,605.0734,492.83,609.0734,488.83,613.0734,484.83,609.0734" style="stroke:#B38D22;stroke-width:1;"/><text fill="#000000" font-family="sans-serif" font-size="14" lengthAdjust="spacing" text-decoration="underline" textLength="70.3555" x="497.83" y="613.4201">New File()</text><ellipse cx="488.83" cy="626.3703" fill="#84BE84" rx="3" ry="3" style="stroke:#038048;stroke-width:1;"/><text fill="#000000" font-family="sans-serif" font-size="14" lengthAdjust="spacing" text-decoration="underline" textLength="117.1338" x="497.83" y="629.717">Construct - File()</text><ellipse cx="488.83" cy="642.6672" fill="#84BE84" rx="3" ry="3" style="stroke:#038048;stroke-width:1;"/><text fill="#000000" font-family="sans-serif" font-size="14" lengthAdjust="spacing" text-decoration="underline" textLength="128.9395" x="497.83" y="646.0139">Construct - Input()</text><ellipse cx="488.83" cy="658.9641" fill="#84BE84" rx="3" ry="3" style="stroke:#038048;stroke-width:1;"/><text fill="#000000" font-family="sans-serif" font-size="14" lengthAdjust="spacing" text-decoration="underline" textLength="78.7363" x="497.83" y="662.3107">Construct()</text><polygon fill="#FFFF44" points="488.83,670.2609,492.83,674.2609,488.83,678.2609,484.83,674.2609" style="stroke:#B38D22;stroke-width:1;"/><text fill="#000000" font-family="sans-serif" font-size="14" lengthAdjust="spacing" textLength="49.0615" x="497.83" y="678.6076">Close()</text><polygon fill="#FFFF44" points="488.83,686.5578,492.83,690.5578,488.83,694.5578,484.83,690.5578" style="stroke:#B38D22;stroke-width:1;"/><text fill="#000000" font-family="sans-serif" font-size="14" lengthAdjust="spacing" textLength="48.5146" x="497.83" y="694.9045">Write()</text></g><!--class Sink-Console--><g class="entity" data-entity="Sink-Console" data-source-line="52" data-uid="ent0010" id="entity_Sink-Console"><rect fill="#FFFFFF" height="243.5625" rx="2.5" ry="2.5" style="stroke:#555555;stroke-width:0.5;" width="184.1768" x="768.91" y="442.34"/><rect fill="#808080" height="32" rx="2.5" ry="2.5" style="stroke:#808080;stroke-width:0.5;" width="184.1768" x="768.91" y="442.34"/><rect fill="#808080" height="2.5" style="stroke:#808080;stroke-width:0.5;" width="184.1768" x="768.91" y="471.84"/><rect fill="none" height="243.5625" rx="2.5" ry="2.5" style="stroke:#555555;stroke-width:0.5;" width="184.1768" x="768.91" y="442.34"/><ellipse cx="811.7164" cy="458.34" fill="#ADD1B2" rx="11" ry="11" style="stroke:#181818;stroke-width:1;"/><path d="M814.6851,463.9806 Q814.107,464.2775 813.4664,464.4181 Q812.8258,464.5744 812.1226,464.5744 Q809.6226,464.5744 808.2945,462.9338 Q806.982,461.2775 806.982,458.1525 Q806.982,455.0275 808.2945,453.3713 Q809.6226,451.715 812.1226,451.715 Q812.8258,451.715 813.4664,451.8713 Q814.1226,452.0275 814.6851,452.3244 L814.6851,455.0431 Q814.0601,454.465 813.4664,454.1994 Q812.8726,453.9181 812.2476,453.9181 Q810.9039,453.9181 810.2164,454.9963 Q809.5289,456.0588 809.5289,458.1525 Q809.5289,460.2463 810.2164,461.3244 Q810.9039,462.3869 812.2476,462.3869 Q812.8726,462.3869 813.4664,462.1213 Q814.0601,461.84 814.6851,461.2619 L814.6851,463.9806 Z " fill="#000000"/><text fill="#000000" font-family="sans-serif" font-size="14" lengthAdjust="spacing" textLength="90.3848" x="831.8956" y="463.1867">Sink-Console</text><line style="stroke:#555555;stroke-width:0.5;" x1="769.91" x2="952.0868" y1="474.34" y2="474.34"/><ellipse cx="779.91" cy="487.9884" fill="none" rx="3" ry="3" style="stroke:#038048;stroke-width:1;"/><text fill="#000000" font-family="sans-serif" font-size="14" lengthAdjust="spacing" textLength="158.1768" x="788.91" y="491.3351">console : kLVObjString</text><rect fill="none" height="6" style="stroke:#C82930;stroke-width:1;" width="6" x="776.91" y="501.2853"/><text fill="#000000" font-family="sans-serif" font-size="14" lengthAdjust="spacing" textLength="129.7119" x="788.91" y="507.632">Control Index : I32</text><rect fill="none" height="6" style="stroke:#C82930;stroke-width:1;" width="6" x="776.91" y="517.5822"/><text fill="#000000" font-family="sans-serif" font-size="14" lengthAdjust="spacing" textLength="147.752" x="788.91" y="523.9289">Owning VI : kLVObjVI</text><rect fill="none" height="6" style="stroke:#C82930;stroke-width:1;" width="6" x="776.91" y="533.8791"/><text fill="#000000" font-family="sans-serif" font-size="14" lengthAdjust="spacing" textLength="126.6221" x="788.91" y="540.2257">buffer length : I32</text><rect fill="none" height="6" style="stroke:#C82930;stroke-width:1;" width="6" x="776.91" y="550.1759"/><text fill="#000000" font-family="sans-serif" font-size="14" lengthAdjust="spacing" textLength="141.709" x="788.91" y="556.5226">items recorded : I32</text><rect fill="none" height="6" style="stroke:#C82930;stroke-width:1;" width="6" x="776.91" y="566.4728"/><text fill="#000000" font-family="sans-serif" font-size="14" lengthAdjust="spacing" textLength="157.2881" x="788.91" y="572.8195">buffer queue : NoType</text><line style="stroke:#555555;stroke-width:0.5;" x1="769.91" x2="952.0868" y1="580.1212" y2="580.1212"/><rect fill="#F24D5C" height="6" style="stroke:#C82930;stroke-width:1;" width="6" x="776.91" y="590.7697"/><text fill="#000000" font-family="sans-serif" font-size="14" lengthAdjust="spacing" text-decoration="underline" textLength="150.418" x="788.91" y="597.1164">create buffer queue()</text><ellipse cx="779.91" cy="610.0666" fill="#84BE84" rx="3" ry="3" style="stroke:#038048;stroke-width:1;"/><text fill="#000000" font-family="sans-serif" font-size="14" lengthAdjust="spacing" text-decoration="underline" textLength="117.1338" x="788.91" y="613.4132">Construct - File()</text><ellipse cx="779.91" cy="626.3634" fill="#84BE84" rx="3" ry="3" style="stroke:#038048;stroke-width:1;"/><text fill="#000000" font-family="sans-serif" font-size="14" lengthAdjust="spacing" text-decoration="underline" textLength="128.9395" x="788.91" y="629.7101">Construct - Input()</text><ellipse cx="779.91" cy="642.6603" fill="#84BE84" rx="3" ry="3" style="stroke:#038048;stroke-width:1;"/><text fill="#000000" font-family="sans-serif" font-size="14" lengthAdjust="spacing" text-decoration="underline" textLength="78.7363" x="788.91" y="646.007">Construct()</text><polygon fill="#FFFF44" points="779.91,653.9572,783.91,657.9572,779.91,661.9572,775.91,657.9572" style="stroke:#B38D22;stroke-width:1;"/><text fill="#000000" font-family="sans-serif" font-size="14" lengthAdjust="spacing" textLength="49.0615" x="788.91" y="662.3039">Close()</text><polygon fill="#FFFF44" points="779.91,670.2541,783.91,674.2541,779.91,678.2541,775.91,674.2541" style="stroke:#B38D22;stroke-width:1;"/><text fill="#000000" font-family="sans-serif" font-size="14" lengthAdjust="spacing" textLength="48.5146" x="788.91" y="678.6007">Write()</text></g><!--class Text File - Binary--><g class="entity" data-entity="Text File - Binary" data-source-line="70" data-uid="ent0012" id="entity_Text File - Binary"><rect fill="#FFFFFF" height="113.1875" rx="2.5" ry="2.5" style="stroke:#555555;stroke-width:0.5;" width="215.3008" x="737.35" y="762.2"/><rect fill="#808080" height="32" rx="2.5" ry="2.5" style="stroke:#808080;stroke-width:0.5;" width="215.3008" x="737.35" y="762.2"/><rect fill="#808080" height="2.5" style="stroke:#808080;stroke-width:0.5;" width="215.3008" x="737.35" y="791.7"/><rect fill="none" height="113.1875" rx="2.5" ry="2.5" style="stroke:#555555;stroke-width:0.5;" width="215.3008" x="737.35" y="762.2"/><ellipse cx="781.3869" cy="778.2" fill="#ADD1B2" rx="11" ry="11" style="stroke:#181818;stroke-width:1;"/><path d="M784.3556,783.8406 Q783.7775,784.1375 783.1369,784.2781 Q782.4962,784.4344 781.7931,784.4344 Q779.2931,784.4344 777.965,782.7937 Q776.6525,781.1375 776.6525,778.0125 Q776.6525,774.8875 777.965,773.2312 Q779.2931,771.575 781.7931,771.575 Q782.4962,771.575 783.1369,771.7312 Q783.7931,771.8875 784.3556,772.1844 L784.3556,774.9031 Q783.7306,774.325 783.1369,774.0594 Q782.5431,773.7781 781.9181,773.7781 Q780.5744,773.7781 779.8869,774.8562 Q779.1994,775.9187 779.1994,778.0125 Q779.1994,780.1062 779.8869,781.1844 Q780.5744,782.2469 781.9181,782.2469 Q782.5431,782.2469 783.1369,781.9812 Q783.7306,781.7 784.3556,781.1219 L784.3556,783.8406 Z " fill="#000000"/><text fill="#000000" font-family="sans-serif" font-size="14" lengthAdjust="spacing" textLength="118.7744" x="801.8395" y="783.0467">Text File - Binary</text><line style="stroke:#555555;stroke-width:0.5;" x1="738.35" x2="951.6508" y1="794.2" y2="794.2"/><line style="stroke:#555555;stroke-width:0.5;" x1="738.35" x2="951.6508" y1="802.2" y2="802.2"/><ellipse cx="748.35" cy="815.8484" fill="#84BE84" rx="3" ry="3" style="stroke:#038048;stroke-width:1;"/><text fill="#000000" font-family="sans-serif" font-size="14" lengthAdjust="spacing" text-decoration="underline" textLength="177.4951" x="757.35" y="819.1951">Construct - File (Binary)()</text><ellipse cx="748.35" cy="832.1453" fill="#84BE84" rx="3" ry="3" style="stroke:#038048;stroke-width:1;"/><text fill="#000000" font-family="sans-serif" font-size="14" lengthAdjust="spacing" text-decoration="underline" textLength="189.3008" x="757.35" y="835.492">Construct - Input (Binary)()</text><ellipse cx="748.35" cy="848.4422" fill="#84BE84" rx="3" ry="3" style="stroke:#038048;stroke-width:1;"/><text fill="#000000" font-family="sans-serif" font-size="14" lengthAdjust="spacing" text-decoration="underline" textLength="78.7363" x="757.35" y="851.7889">Construct()</text><polygon fill="#FFFF44" points="748.35,859.7391,752.35,863.7391,748.35,867.7391,744.35,863.7391" style="stroke:#B38D22;stroke-width:1;"/><text fill="#000000" font-family="sans-serif" font-size="14" lengthAdjust="spacing" textLength="48.5146" x="757.35" y="868.0857">Write()</text></g><!--class SimpleLayout--><g class="entity" data-entity="SimpleLayout" data-source-line="88" data-uid="ent0014" id="entity_SimpleLayout"><rect fill="#FFFFFF" height="64.2969" rx="2.5" ry="2.5" style="stroke:#555555;stroke-width:0.5;" width="128.7031" x="21.65" y="786.65"/><rect fill="#808080" height="32" rx="2.5" ry="2.5" style="stroke:#808080;stroke-width:0.5;" width="128.7031" x="21.65" y="786.65"/><rect fill="#808080" height="2.5" style="stroke:#808080;stroke-width:0.5;" width="128.7031" x="21.65" y="816.15"/><rect fill="none" height="64.2969" rx="2.5" ry="2.5" style="stroke:#555555;stroke-width:0.5;" width="128.7031" x="21.65" y="786.65"/><ellipse cx="37.2384" cy="802.65" fill="#ADD1B2" rx="11" ry="11" style="stroke:#181818;stroke-width:1;"/><path d="M40.2072,808.2906 Q39.6291,808.5875 38.9884,808.7281 Q38.3478,808.8844 37.6447,808.8844 Q35.1447,808.8844 33.8166,807.2438 Q32.5041,805.5875 32.5041,802.4625 Q32.5041,799.3375 33.8166,797.6813 Q35.1447,796.025 37.6447,796.025 Q38.3478,796.025 38.9884,796.1813 Q39.6447,796.3375 40.2072,796.6344 L40.2072,799.3531 Q39.5822,798.775 38.9884,798.5094 Q38.3947,798.2281 37.7697,798.2281 Q36.4259,798.2281 35.7384,799.3063 Q35.0509,800.3688 35.0509,802.4625 Q35.0509,804.5563 35.7384,805.6344 Q36.4259,806.6969 37.7697,806.6969 Q38.3947,806.6969 38.9884,806.4313 Q39.5822,806.15 40.2072,805.5719 L40.2072,808.2906 Z " fill="#000000"/><text fill="#000000" font-family="sans-serif" font-size="14" lengthAdjust="spacing" textLength="95.3955" x="51.3692" y="807.4967">SimpleLayout</text><line style="stroke:#555555;stroke-width:0.5;" x1="22.65" x2="149.3531" y1="818.65" y2="818.65"/><line style="stroke:#555555;stroke-width:0.5;" x1="22.65" x2="149.3531" y1="826.65" y2="826.65"/><ellipse cx="32.65" cy="840.2984" fill="#84BE84" rx="3" ry="3" style="stroke:#038048;stroke-width:1;"/><text fill="#000000" font-family="sans-serif" font-size="14" lengthAdjust="spacing" textLength="102.7031" x="41.65" y="843.6451">Format Entry()</text></g><!--class CSVLayout--><g class="entity" data-entity="CSVLayout" data-source-line="95" data-uid="ent0016" id="entity_CSVLayout"><rect fill="#FFFFFF" height="64.2969" rx="2.5" ry="2.5" style="stroke:#555555;stroke-width:0.5;" width="128.7031" x="185.65" y="786.65"/><rect fill="#808080" height="32" rx="2.5" ry="2.5" style="stroke:#808080;stroke-width:0.5;" width="128.7031" x="185.65" y="786.65"/><rect fill="#808080" height="2.5" style="stroke:#808080;stroke-width:0.5;" width="128.7031" x="185.65" y="816.15"/><rect fill="none" height="64.2969" rx="2.5" ry="2.5" style="stroke:#555555;stroke-width:0.5;" width="128.7031" x="185.65" y="786.65"/><ellipse cx="210.0424" cy="802.65" fill="#ADD1B2" rx="11" ry="11" style="stroke:#181818;stroke-width:1;"/><path d="M213.0112,808.2906 Q212.4331,808.5875 211.7924,808.7281 Q211.1518,808.8844 210.4487,808.8844 Q207.9487,808.8844 206.6206,807.2438 Q205.3081,805.5875 205.3081,802.4625 Q205.3081,799.3375 206.6206,797.6813 Q207.9487,796.025 210.4487,796.025 Q211.1518,796.025 211.7924,796.1813 Q212.4487,796.3375 213.0112,796.6344 L213.0112,799.3531 Q212.3862,798.775 211.7924,798.5094 Q211.1987,798.2281 210.5737,798.2281 Q209.2299,798.2281 208.5424,799.3063 Q207.8549,800.3688 207.8549,802.4625 Q207.8549,804.5563 208.5424,805.6344 Q209.2299,806.6969 210.5737,806.6969 Q211.1987,806.6969 211.7924,806.4313 Q212.3862,806.15 213.0112,805.5719 L213.0112,808.2906 Z " fill="#000000"/><text fill="#000000" font-family="sans-serif" font-size="14" lengthAdjust="spacing" textLength="75.8311" x="226.1296" y="807.4967">CSVLayout</text><line style="stroke:#555555;stroke-width:0.5;" x1="186.65" x2="313.3531" y1="818.65" y2="818.65"/><line style="stroke:#555555;stroke-width:0.5;" x1="186.65" x2="313.3531" y1="826.65" y2="826.65"/><ellipse cx="196.65" cy="840.2984" fill="#84BE84" rx="3" ry="3" style="stroke:#038048;stroke-width:1;"/><text fill="#000000" font-family="sans-serif" font-size="14" lengthAdjust="spacing" textLength="102.7031" x="205.65" y="843.6451">Format Entry()</text></g><!--class JSONLayout--><g class="entity" data-entity="JSONLayout" data-source-line="102" data-uid="ent0018" id="entity_JSONLayout"><rect fill="#FFFFFF" height="80.5938" rx="2.5" ry="2.5" style="stroke:#555555;stroke-width:0.5;" width="225.917" x="349.04" y="778.5"/><rect fill="#808080" height="32" rx="2.5" ry="2.5" style="stroke:#808080;stroke-width:0.5;" width="225.917" x="349.04" y="778.5"/><rect fill="#808080" height="2.5" style="stroke:#808080;stroke-width:0.5;" width="225.917" x="349.04" y="808"/><rect fill="none" height="80.5938" rx="2.5" ry="2.5" style="stroke:#555555;stroke-width:0.5;" width="225.917" x="349.04" y="778.5"/><ellipse cx="416.6987" cy="794.5" fill="#ADD1B2" rx="11" ry="11" style="stroke:#181818;stroke-width:1;"/><path d="M419.6674,800.1406 Q419.0893,800.4375 418.4487,800.5781 Q417.8081,800.7344 417.1049,800.7344 Q414.6049,800.7344 413.2768,799.0938 Q411.9643,797.4375 411.9643,794.3125 Q411.9643,791.1875 413.2768,789.5313 Q414.6049,787.875 417.1049,787.875 Q417.8081,787.875 418.4487,788.0313 Q419.1049,788.1875 419.6674,788.4844 L419.6674,791.2031 Q419.0424,790.625 418.4487,790.3594 Q417.8549,790.0781 417.2299,790.0781 Q415.8862,790.0781 415.1987,791.1563 Q414.5112,792.2188 414.5112,794.3125 Q414.5112,796.4063 415.1987,797.4844 Q415.8862,798.5469 417.2299,798.5469 Q417.8549,798.5469 418.4487,798.2813 Q419.0424,798 419.6674,797.4219 L419.6674,800.1406 Z " fill="#000000"/><text fill="#000000" font-family="sans-serif" font-size="14" lengthAdjust="spacing" textLength="82.0996" x="437.1987" y="799.3467">JSONLayout</text><line style="stroke:#555555;stroke-width:0.5;" x1="350.04" x2="573.957" y1="810.5" y2="810.5"/><line style="stroke:#555555;stroke-width:0.5;" x1="350.04" x2="573.957" y1="818.5" y2="818.5"/><ellipse cx="360.04" cy="832.1484" fill="#84BE84" rx="3" ry="3" style="stroke:#038048;stroke-width:1;"/><text fill="#000000" font-family="sans-serif" font-size="14" lengthAdjust="spacing" text-decoration="underline" textLength="199.917" x="369.04" y="835.4951">Format Arguments to JSON()</text><ellipse cx="360.04" cy="848.4453" fill="#84BE84" rx="3" ry="3" style="stroke:#038048;stroke-width:1;"/><text fill="#000000" font-family="sans-serif" font-size="14" lengthAdjust="spacing" textLength="102.7031" x="369.04" y="851.792">Format Entry()</text></g><!--class FFT--><g class="entity" data-entity="FFT" data-source-line="121" data-uid="ent0020" id="entity_FFT"><rect fill="#FFFFFF" height="80.5938" rx="2.5" ry="2.5" style="stroke:#555555;stroke-width:0.5;" width="92.4316" x="609.78" y="778.5"/><rect fill="#808080" height="32" rx="2.5" ry="2.5" style="stroke:#808080;stroke-width:0.5;" width="92.4316" x="609.78" y="778.5"/><rect fill="#808080" height="2.5" style="stroke:#808080;stroke-width:0.5;" width="92.4316" x="609.78" y="808"/><rect fill="none" height="80.5938" rx="2.5" ry="2.5" style="stroke:#555555;stroke-width:0.5;" width="92.4316" x="609.78" y="778.5"/><ellipse cx="640.8785" cy="794.5" fill="#ADD1B2" rx="11" ry="11" style="stroke:#181818;stroke-width:1;"/><path d="M643.8472,800.1406 Q643.2691,800.4375 642.6285,800.5781 Q641.9879,800.7344 641.2847,800.7344 Q638.7847,800.7344 637.4566,799.0938 Q636.1441,797.4375 636.1441,794.3125 Q636.1441,791.1875 637.4566,789.5313 Q638.7847,787.875 641.2847,787.875 Q641.9879,787.875 642.6285,788.0313 Q643.2847,788.1875 643.8472,788.4844 L643.8472,791.2031 Q643.2222,790.625 642.6285,790.3594 Q642.0347,790.0781 641.4097,790.0781 Q640.066,790.0781 639.3785,791.1563 Q638.691,792.2188 638.691,794.3125 Q638.691,796.4063 639.3785,797.4844 Q640.066,798.5469 641.4097,798.5469 Q642.0347,798.5469 642.6285,798.2813 Q643.2222,798 643.8472,797.4219 L643.8472,800.1406 Z " fill="#000000"/><text fill="#000000" font-family="sans-serif" font-size="14" lengthAdjust="spacing" textLength="24.6572" x="658.4559" y="799.3467">FFT</text><line style="stroke:#555555;stroke-width:0.5;" x1="610.78" x2="701.2116" y1="810.5" y2="810.5"/><line style="stroke:#555555;stroke-width:0.5;" x1="610.78" x2="701.2116" y1="818.5" y2="818.5"/><ellipse cx="620.78" cy="832.1484" fill="#84BE84" rx="3" ry="3" style="stroke:#038048;stroke-width:1;"/><text fill="#000000" font-family="sans-serif" font-size="14" lengthAdjust="spacing" textLength="66.4316" x="629.78" y="835.4951">Decrypt()</text><ellipse cx="620.78" cy="848.4453" fill="#84BE84" rx="3" ry="3" style="stroke:#038048;stroke-width:1;"/><text fill="#000000" font-family="sans-serif" font-size="14" lengthAdjust="spacing" textLength="64.7568" x="629.78" y="851.792">Encrypt()</text></g><!--class Log--><g class="entity" data-entity="Log" data-source-line="129" data-uid="ent0022" id="entity_Log"><rect fill="#FFFFFF" height="178.375" rx="2.5" ry="2.5" style="stroke:#555555;stroke-width:0.5;" width="199.6875" x="132.16" y="114.34"/><rect fill="#808080" height="32" rx="2.5" ry="2.5" style="stroke:#808080;stroke-width:0.5;" width="199.6875" x="132.16" y="114.34"/><rect fill="#808080" height="2.5" style="stroke:#808080;stroke-width:0.5;" width="199.6875" x="132.16" y="143.84"/><rect fill="none" height="178.375" rx="2.5" ry="2.5" style="stroke:#555555;stroke-width:0.5;" width="199.6875" x="132.16" y="114.34"/><ellipse cx="215.1278" cy="130.34" fill="#ADD1B2" rx="11" ry="11" style="stroke:#181818;stroke-width:1;"/><path d="M218.0965,135.9806 Q217.5184,136.2775 216.8778,136.4181 Q216.2371,136.5744 215.534,136.5744 Q213.034,136.5744 211.7059,134.9338 Q210.3934,133.2775 210.3934,130.1525 Q210.3934,127.0275 211.7059,125.3713 Q213.034,123.715 215.534,123.715 Q216.2371,123.715 216.8778,123.8713 Q217.534,124.0275 218.0965,124.3244 L218.0965,127.0431 Q217.4715,126.465 216.8778,126.1994 Q216.284,125.9181 215.659,125.9181 Q214.3153,125.9181 213.6278,126.9963 Q212.9403,128.0588 212.9403,130.1525 Q212.9403,132.2463 213.6278,133.3244 Q214.3153,134.3869 215.659,134.3869 Q216.284,134.3869 216.8778,134.1213 Q217.4715,133.84 218.0965,133.2619 L218.0965,135.9806 Z " fill="#000000"/><text fill="#000000" font-family="sans-serif" font-size="14" lengthAdjust="spacing" textLength="25.252" x="235.6278" y="135.1867">Log</text><line style="stroke:#555555;stroke-width:0.5;" x1="133.16" x2="330.8475" y1="146.34" y2="146.34"/><rect fill="none" height="6" style="stroke:#C82930;stroke-width:1;" width="6" x="140.16" y="156.9884"/><text fill="#000000" font-family="sans-serif" font-size="14" lengthAdjust="spacing" textLength="173.6875" x="152.16" y="163.3351">Sink DVR Array : NoType</text><line style="stroke:#555555;stroke-width:0.5;" x1="133.16" x2="330.8475" y1="170.6369" y2="170.6369"/><ellipse cx="143.16" cy="184.2853" fill="#84BE84" rx="3" ry="3" style="stroke:#038048;stroke-width:1;"/><text fill="#000000" font-family="sans-serif" font-size="14" lengthAdjust="spacing" text-decoration="underline" textLength="72.4814" x="152.16" y="187.632">Add Sink()</text><ellipse cx="143.16" cy="200.5822" fill="#84BE84" rx="3" ry="3" style="stroke:#038048;stroke-width:1;"/><text fill="#000000" font-family="sans-serif" font-size="14" lengthAdjust="spacing" text-decoration="underline" textLength="132.2412" x="152.16" y="203.9289">Decrypt Message()</text><ellipse cx="143.16" cy="216.8791" fill="#84BE84" rx="3" ry="3" style="stroke:#038048;stroke-width:1;"/><text fill="#000000" font-family="sans-serif" font-size="14" lengthAdjust="spacing" text-decoration="underline" textLength="136.2334" x="152.16" y="220.2257">Define Encryption()</text><ellipse cx="143.16" cy="233.1759" fill="#84BE84" rx="3" ry="3" style="stroke:#038048;stroke-width:1;"/><text fill="#000000" font-family="sans-serif" font-size="14" lengthAdjust="spacing" text-decoration="underline" textLength="108.1377" x="152.16" y="236.5226">Log Entry.vim()</text><ellipse cx="143.16" cy="249.4728" fill="#84BE84" rx="3" ry="3" style="stroke:#038048;stroke-width:1;"/><text fill="#000000" font-family="sans-serif" font-size="14" lengthAdjust="spacing" text-decoration="underline" textLength="102.5732" x="152.16" y="252.8195">Remove Sink()</text><ellipse cx="143.16" cy="265.7697" fill="#84BE84" rx="3" ry="3" style="stroke:#038048;stroke-width:1;"/><text fill="#000000" font-family="sans-serif" font-size="14" lengthAdjust="spacing" text-decoration="underline" textLength="105.3623" x="152.16" y="269.1164">Start Logging()</text><ellipse cx="143.16" cy="282.0666" fill="#84BE84" rx="3" ry="3" style="stroke:#038048;stroke-width:1;"/><text fill="#000000" font-family="sans-serif" font-size="14" lengthAdjust="spacing" text-decoration="underline" textLength="102.9902" x="152.16" y="285.4132">Stop Logging()</text></g><!--reverse link Log Sinks to Layout--><g class="link" data-entity-1="Log Sinks" data-entity-2="Layout" data-source-line="28" data-uid="lnk5" id="link_Log Sinks_Layout"><path codeLine="28" d="M412.0533,321.5828 C388.5033,339.7228 373.22,350.38 349,366.05 C299.93,397.79 277.61,389.51 232,426.05 C200.23,451.5 171.02,486.97 150.12,515.45" fill="none" id="Log Sinks-backto-Layout" style="stroke:#181818;stroke-width:1;"/><polygon fill="#181818" points="421.56,314.26,414.3657,314.7525,412.0533,321.5828,419.2476,321.0903,421.56,314.26" style="stroke:#181818;stroke-width:1;"/></g><!--reverse link Log Sinks to Encryption--><g class="link" data-entity-1="Log Sinks" data-entity-2="Encryption" data-source-line="29" data-uid="lnk7" id="link_Log Sinks_Encryption"><path codeLine="29" d="M452.4438,376.9274 C427.5038,420.5474 407.74,455.13 387.2,491.05" fill="none" id="Log Sinks-backto-Encryption" style="stroke:#181818;stroke-width:1;"/><polygon fill="#181818" points="458.4,366.51,451.9494,369.7333,452.4438,376.9274,458.8944,373.7041,458.4,366.51" style="stroke:#181818;stroke-width:1;"/></g><!--reverse link Log Sinks to Text File--><g class="link" data-entity-1="Log Sinks" data-entity-2="Text File" data-source-line="49" data-uid="lnk9" id="link_Log Sinks_Text File"><path codeLine="49" d="M578.5757,384.3009 C581.6157,404.0709 581.95,406.33 584.92,425.69" fill="none" id="Log Sinks-backto-Text File" style="stroke:#181818;stroke-width:1;"/><polygon fill="none" points="575.84,366.51,572.6454,385.2128,584.506,383.389,575.84,366.51" style="stroke:#181818;stroke-width:1;"/></g><!--reverse link Log Sinks to Sink-Console--><g class="link" data-entity-1="Log Sinks" data-entity-2="Sink-Console" data-source-line="67" data-uid="lnk11" id="link_Log Sinks_Sink-Console"><path codeLine="67" d="M692.56,357.9095 C716.63,384.6995 729.3,399.33 752,426.05 C757.41,432.42 762.92,439 768.44,445.68" fill="none" id="Log Sinks-backto-Sink-Console" style="stroke:#181818;stroke-width:1;"/><polygon fill="none" points="680.53,344.52,688.0969,361.9195,697.0232,353.8995,680.53,344.52" style="stroke:#181818;stroke-width:1;"/></g><!--reverse link Text File to Text File - Binary--><g class="link" data-entity-1="Text File" data-entity-2="Text File - Binary" data-source-line="77" data-uid="lnk13" id="link_Text File_Text File - Binary"><path codeLine="77" d="M746.9601,714.1559 C767.2901,735.6459 774.9,743.69 792.15,761.93" fill="none" id="Text File-backto-Text File - Binary" style="stroke:#181818;stroke-width:1;"/><polygon fill="none" points="734.59,701.08,742.6015,718.2793,751.3188,710.0326,734.59,701.08" style="stroke:#181818;stroke-width:1;"/></g><!--reverse link Layout to SimpleLayout--><g class="link" data-entity-1="Layout" data-entity-2="SimpleLayout" data-source-line="92" data-uid="lnk15" id="link_Layout_SimpleLayout"><path codeLine="92" d="M109.6793,630.8075 C103.2493,681.5975 95.53,742.58 90.01,786.15" fill="none" id="Layout-backto-SimpleLayout" style="stroke:#181818;stroke-width:1;"/><polygon fill="none" points="111.94,612.95,103.7268,630.0539,115.6317,631.561,111.94,612.95" style="stroke:#181818;stroke-width:1;"/></g><!--reverse link Layout to CSVLayout--><g class="link" data-entity-1="Layout" data-entity-2="CSVLayout" data-source-line="99" data-uid="lnk17" id="link_Layout_CSVLayout"><path codeLine="99" d="M151.3163,628.9033 C177.8563,679.6933 210.7,742.58 233.47,786.15" fill="none" id="Layout-backto-CSVLayout" style="stroke:#181818;stroke-width:1;"/><polygon fill="none" points="142.98,612.95,145.9985,631.682,156.634,626.1245,142.98,612.95" style="stroke:#181818;stroke-width:1;"/></g><!--reverse link Layout to JSONLayout--><g class="link" data-entity-1="Layout" data-entity-2="JSONLayout" data-source-line="107" data-uid="lnk19" id="link_Layout_JSONLayout"><path codeLine="107" d="M160.6797,627.4161 C181.5497,655.9361 200.13,676.88 232,702.2 C255.84,721.14 319.45,752.66 373.75,778.01" fill="none" id="Layout-backto-JSONLayout" style="stroke:#181818;stroke-width:1;"/><polygon fill="none" points="150.05,612.89,155.8377,630.9594,165.5218,623.8729,150.05,612.89" style="stroke:#181818;stroke-width:1;"/></g><!--reverse link Encryption to FFT--><g class="link" data-entity-1="Encryption" data-entity-2="FFT" data-source-line="126" data-uid="lnk21" id="link_Encryption_FFT"><path codeLine="126" d="M407.2113,651.4002 C425.4613,674.1902 436.25,684.08 460,702.2 C511.23,741.3 537.78,727.38 592,762.2 C599.31,766.9 606.64,772.38 613.61,778.04" fill="none" id="Encryption-backto-FFT" style="stroke:#181818;stroke-width:1;"/><polygon fill="none" points="395.96,637.35,402.5279,655.1506,411.8947,647.6498,395.96,637.35" style="stroke:#181818;stroke-width:1;"/></g><!--SRC=[tLVTRzCm47_lNt7QNZQc8Zu4GXCIMh-Wq7Qmb28UtUIQcZfsi9rkPUn_vvoK9cdJfWY91rBr8RxVsVVnyzt5e0N98ZGnyz73c6bcbORBXbbmwTuYQ0jcJ8lvYr2hH0Pj9GXmsakV7PZI0Uerv4NwR4DwIjeru4dwR0FU8QCzTWvyzSJz6WMqLJ7zOQgiLH44NADlkP8Dt-q29sEl3TqbIWi35OQe7ukbuDDBUW6FouKvWVl6_OoZ21xWOaGnW4lmhEOop9U7NF8eYM20InGaxqfw-VpqPOxudc22e756qf4QhsBSo9fNPCyItv2afPH09dEr0Lkfn99aCCcypaLTwUjLx3mfYOrbbliFS1-XdIkt_O0RYnBrsNc5zBIjv19rwZoPRVMg6jP1WHRXMWJGum9D9UhYBT74YQ4lPweQyeNBGDqQyBvwu-vmt1zsNNAoW5Ph35WY_JaSTEFYKy9jjSH36QJUVIIgO0hAdHVAO7b5HH55bF897t1bIh8lcbk7RZmqZc3DesPpFxdIj9xyxJOv1KuQZHe-Z_4koqs9ppENh5r6kglUd2aTCRlBzcQgHDkXD1dxjW52-MnDp8_CpdF1aDrb_F3u3uIpOUkS81sLJ6cf9nIpENG47RQ2LZAR8TKP-FpyMILxcR6EF-qv5y4UWi_HN-IdLeD6U9j2gYb4TyHOdVWMcaUY-Z9ER0siXeb_nhRNFm_m9CzzBKtSTardejfYYf-jKIeMWydrzDjspad7QYN8ym3l2DLt2VijlBwL18P9VwC-wUVIQPPaWJAqysrL2a9ag73whcK4szArQbPTSnxl5a5V8wFwLSJ_dxak9V3uga1-jBXaUfKclJuiS9R1pu-Cpx7uFmrBeQmTTmLoHsk3iwxIrG6vmLZGB0HNEamYKjtJ4SUS1eRiha0lBQWsQs4RHBQwwRtaQ_qTZMA11UiEx5NdMmsN2WVLcjNs9l_0floKMeFUUzUZWpbScxP9eUiaJgacFtzbVy6eMWSA_RrGYa-zgy6uOWXDbmkjjpH_3XDXUInusapB7RVYDcR5CZ- -590EfikbjJNqEFxsUkCoHMftF2P01wFkZgo_xoeinhdfIYbq9ZT444spo87sSd4L16brhYu2Q_zWYCQm4FU1Pbnk1xrY6luzfpzUygWQSeEHMk81UppBiea_t3jqU-whAKUaMVq5]--></g></svg>