<svg xmlns="http://www.w3.org/2000/svg" xmlns:xlink="http://www.w3.org/1999/xlink" contentStyleType="text/css" data-diagram-type="CLASS" height="415px" preserveAspectRatio="none" style="width:229px;height:415px;background:#FFFFFF;" version="1.1" viewBox="0 0 229 415" width="229px" zoomAndPan="magnify"><defs/><g><!--cluster TSC Event Logger.lvlib--><g class="cluster" data-entity="TSC Event Logger.lvlib" data-source-line="8" data-uid="ent0003" id="cluster_TSC Event Logger.lvlib"><path d="M8.5,6 L187.8428,6 A3.75,3.75 0 0 1 190.3428,8.5 L197.3428,28.2969 L219.5,28.2969 A2.5,2.5 0 0 1 222,30.7969 L222,406.06 A2.5,2.5 0 0 1 219.5,408.56 L8.5,408.56 A2.5,2.5 0 0 1 6,406.06 L6,8.5 A2.5,2.5 0 0 1 8.5,6" fill="none" style="stroke:#000000;stroke-width:1.5;"/><line style="stroke:#000000;stroke-width:1.5;" x1="6" x2="197.3428" y1="28.2969" y2="28.2969"/><text fill="#000000" font-family="sans-serif" font-size="14" font-weight="bold" lengthAdjust="spacing" textLength="178.3428" x="10" y="20.9951">TSC Event Logger.lvlib</text></g><!--class Sink-Console--><g class="entity" data-entity="Sink-Console" data-source-line="8" data-uid="ent0002" id="entity_Sink-Console"><rect fill="#FFFFFF" height="243.5625" rx="2.5" ry="2.5" style="stroke:#555555;stroke-width:0.5;" width="184.1768" x="21.91" y="149"/><rect fill="#808080" height="32" rx="2.5" ry="2.5" style="stroke:#808080;stroke-width:0.5;" width="184.1768" x="21.91" y="149"/><rect fill="#808080" height="2.5" style="stroke:#808080;stroke-width:0.5;" width="184.1768" x="21.91" y="178.5"/><rect fill="none" height="243.5625" rx="2.5" ry="2.5" style="stroke:#555555;stroke-width:0.5;" width="184.1768" x="21.91" y="149"/><ellipse cx="64.7164" cy="165" fill="#ADD1B2" rx="11" ry="11" style="stroke:#181818;stroke-width:1;"/><path d="M67.6851,170.6406 Q67.107,170.9375 66.4664,171.0781 Q65.8258,171.2344 65.1226,171.2344 Q62.6226,171.2344 61.2945,169.5938 Q59.982,167.9375 59.982,164.8125 Q59.982,161.6875 61.2945,160.0313 Q62.6226,158.375 65.1226,158.375 Q65.8258,158.375 66.4664,158.5313 Q67.1226,158.6875 67.6851,158.9844 L67.6851,161.7031 Q67.0601,161.125 66.4664,160.8594 Q65.8726,160.5781 65.2476,160.5781 Q63.9039,160.5781 63.2164,161.6563 Q62.5289,162.7188 62.5289,164.8125 Q62.5289,166.9063 63.2164,167.9844 Q63.9039,169.0469 65.2476,169.0469 Q65.8726,169.0469 66.4664,168.7813 Q67.0601,168.5 67.6851,167.9219 L67.6851,170.6406 Z " fill="#000000"/><text fill="#000000" font-family="sans-serif" font-size="14" lengthAdjust="spacing" textLength="90.3848" x="84.8956" y="169.8467">Sink-Console</text><line style="stroke:#555555;stroke-width:0.5;" x1="22.91" x2="205.0868" y1="181" y2="181"/><ellipse cx="32.91" cy="194.6484" fill="none" rx="3" ry="3" style="stroke:#038048;stroke-width:1;"/><text fill="#000000" font-family="sans-serif" font-size="14" lengthAdjust="spacing" textLength="158.1768" x="41.91" y="197.9951">console : kLVObjString</text><rect fill="none" height="6" style="stroke:#C82930;stroke-width:1;" width="6" x="29.91" y="207.9453"/><text fill="#000000" font-family="sans-serif" font-size="14" lengthAdjust="spacing" textLength="129.7119" x="41.91" y="214.292">Control Index : I32</text><rect fill="none" height="6" style="stroke:#C82930;stroke-width:1;" width="6" x="29.91" y="224.2422"/><text fill="#000000" font-family="sans-serif" font-size="14" lengthAdjust="spacing" textLength="147.752" x="41.91" y="230.5889">Owning VI : kLVObjVI</text><rect fill="none" height="6" style="stroke:#C82930;stroke-width:1;" width="6" x="29.91" y="240.5391"/><text fill="#000000" font-family="sans-serif" font-size="14" lengthAdjust="spacing" textLength="126.6221" x="41.91" y="246.8857">buffer length : I32</text><rect fill="none" height="6" style="stroke:#C82930;stroke-width:1;" width="6" x="29.91" y="256.8359"/><text fill="#000000" font-family="sans-serif" font-size="14" lengthAdjust="spacing" textLength="141.709" x="41.91" y="263.1826">items recorded : I32</text><rect fill="none" height="6" style="stroke:#C82930;stroke-width:1;" width="6" x="29.91" y="273.1328"/><text fill="#000000" font-family="sans-serif" font-size="14" lengthAdjust="spacing" textLength="157.2881" x="41.91" y="279.4795">buffer queue : NoType</text><line style="stroke:#555555;stroke-width:0.5;" x1="22.91" x2="205.0868" y1="286.7813" y2="286.7813"/><rect fill="#F24D5C" height="6" style="stroke:#C82930;stroke-width:1;" width="6" x="29.91" y="297.4297"/><text fill="#000000" font-family="sans-serif" font-size="14" lengthAdjust="spacing" text-decoration="underline" textLength="150.418" x="41.91" y="303.7764">create buffer queue()</text><ellipse cx="32.91" cy="316.7266" fill="#84BE84" rx="3" ry="3" style="stroke:#038048;stroke-width:1;"/><text fill="#000000" font-family="sans-serif" font-size="14" lengthAdjust="spacing" text-decoration="underline" textLength="117.1338" x="41.91" y="320.0732">Construct - File()</text><ellipse cx="32.91" cy="333.0234" fill="#84BE84" rx="3" ry="3" style="stroke:#038048;stroke-width:1;"/><text fill="#000000" font-family="sans-serif" font-size="14" lengthAdjust="spacing" text-decoration="underline" textLength="128.9395" x="41.91" y="336.3701">Construct - Input()</text><ellipse cx="32.91" cy="349.3203" fill="#84BE84" rx="3" ry="3" style="stroke:#038048;stroke-width:1;"/><text fill="#000000" font-family="sans-serif" font-size="14" lengthAdjust="spacing" text-decoration="underline" textLength="78.7363" x="41.91" y="352.667">Construct()</text><polygon fill="#FFFF44" points="32.91,360.6172,36.91,364.6172,32.91,368.6172,28.91,364.6172" style="stroke:#B38D22;stroke-width:1;"/><text fill="#000000" font-family="sans-serif" font-size="14" lengthAdjust="spacing" textLength="49.0615" x="41.91" y="368.9639">Close()</text><polygon fill="#FFFF44" points="32.91,376.9141,36.91,380.9141,32.91,384.9141,28.91,380.9141" style="stroke:#B38D22;stroke-width:1;"/><text fill="#000000" font-family="sans-serif" font-size="14" lengthAdjust="spacing" textLength="48.5146" x="41.91" y="385.2607">Write()</text></g><!--class Log Sinks--><g class="entity" data-entity="Log Sinks" data-source-line="23" data-uid="ent0004" id="entity_Log Sinks"><rect fill="#FFFFFF" height="48" rx="2.5" ry="2.5" style="stroke:#555555;stroke-width:0.5;" width="98.7529" x="64.62" y="41"/><rect fill="#808080" height="32" rx="2.5" ry="2.5" style="stroke:#808080;stroke-width:0.5;" width="98.7529" x="64.62" y="41"/><rect fill="#808080" height="2.5" style="stroke:#808080;stroke-width:0.5;" width="98.7529" x="64.62" y="70.5"/><rect fill="none" height="48" rx="2.5" ry="2.5" style="stroke:#555555;stroke-width:0.5;" width="98.7529" x="64.62" y="41"/><ellipse cx="79.62" cy="57" fill="#ADD1B2" rx="11" ry="11" style="stroke:#181818;stroke-width:1;"/><path d="M82.5888,62.6406 Q82.0106,62.9375 81.37,63.0781 Q80.7294,63.2344 80.0263,63.2344 Q77.5263,63.2344 76.1981,61.5938 Q74.8856,59.9375 74.8856,56.8125 Q74.8856,53.6875 76.1981,52.0313 Q77.5263,50.375 80.0263,50.375 Q80.7294,50.375 81.37,50.5313 Q82.0263,50.6875 82.5888,50.9844 L82.5888,53.7031 Q81.9638,53.125 81.37,52.8594 Q80.7763,52.5781 80.1513,52.5781 Q78.8075,52.5781 78.12,53.6563 Q77.4325,54.7188 77.4325,56.8125 Q77.4325,58.9063 78.12,59.9844 Q78.8075,61.0469 80.1513,61.0469 Q80.7763,61.0469 81.37,60.7813 Q81.9638,60.5 82.5888,59.9219 L82.5888,62.6406 Z " fill="#000000"/><text fill="#000000" font-family="sans-serif" font-size="14" lengthAdjust="spacing" textLength="66.7529" x="93.62" y="61.8467">Log Sinks</text><line style="stroke:#555555;stroke-width:0.5;" x1="65.62" x2="162.3729" y1="73" y2="73"/><line style="stroke:#555555;stroke-width:0.5;" x1="65.62" x2="162.3729" y1="81" y2="81"/></g><!--reverse link Log Sinks to Sink-Console--><g class="link" data-entity-1="Log Sinks" data-entity-2="Sink-Console" data-source-line="23" data-uid="lnk5" id="link_Log Sinks_Sink-Console"><path codeLine="23" d="M114,107.37 C114,122.74 114,126.16 114,148.88" fill="none" id="Log Sinks-backto-Sink-Console" style="stroke:#181818;stroke-width:1;"/><polygon fill="none" points="114,89.37,108,107.37,120,107.37,114,89.37" style="stroke:#181818;stroke-width:1;"/></g><!--SRC=[ZP71JiCm38RlUGfhku2ceWc4X2PEL4nKcjYXqpYdgTU5fab9t04gUtUICRRHWPYZ7Ep_isF73Waqhz3LN62ADRUSZ8KHSwNKmQiWLjovEoxAmff6vx5H7kYFDtQ46PkZtIBN6-iYOwDf2mmtrWKUaFiQHm_U3CDX1pIPsb_8396f89SM1KcZcGXLe3TBOxXVeIQOcA90Uw5MIcQZLEeoYersHc4FMjOk9Afy3GFn5OCHb9FvD7jEoKfTxFIGGzOeI7IERvvAhYxtulHLUnZcoIvzdkpLh5aiq892NT2ocoe9AmU- -V1tULVTfhuqs8JM7itilKRMEk8anHhQ2cbf0YWiSa8uvC_EVm47ONQoZI28O2pL2LIYwuR-mOBy7Ut7oZZy4NcoVamVOMlsrsAy0s4vhWUt7r5qsW8POvy0]--></g></svg>