<svg xmlns="http://www.w3.org/2000/svg" xmlns:xlink="http://www.w3.org/1999/xlink" contentStyleType="text/css" data-diagram-type="CLASS" height="285px" preserveAspectRatio="none" style="width:261px;height:285px;background:#FFFFFF;" version="1.1" viewBox="0 0 261 285" width="261px" zoomAndPan="magnify"><defs/><g><!--cluster TSC Event Logger.lvlib--><g class="cluster" data-entity="TSC Event Logger.lvlib" data-source-line="8" data-uid="ent0003" id="cluster_TSC Event Logger.lvlib"><path d="M8.5,6 L187.8428,6 A3.75,3.75 0 0 1 190.3428,8.5 L197.3428,28.2969 L251.5,28.2969 A2.5,2.5 0 0 1 254,30.7969 L254,275.69 A2.5,2.5 0 0 1 251.5,278.19 L8.5,278.19 A2.5,2.5 0 0 1 6,275.69 L6,8.5 A2.5,2.5 0 0 1 8.5,6" fill="none" style="stroke:#000000;stroke-width:1.5;"/><line style="stroke:#000000;stroke-width:1.5;" x1="6" x2="197.3428" y1="28.2969" y2="28.2969"/><text fill="#000000" font-family="sans-serif" font-size="14" font-weight="bold" lengthAdjust="spacing" textLength="178.3428" x="10" y="20.9951">TSC Event Logger.lvlib</text></g><!--class Text File - Binary--><g class="entity" data-entity="Text File - Binary" data-source-line="8" data-uid="ent0002" id="entity_Text File - Binary"><rect fill="#FFFFFF" height="113.1875" rx="2.5" ry="2.5" style="stroke:#555555;stroke-width:0.5;" width="215.3008" x="22.35" y="149"/><rect fill="#808080" height="32" rx="2.5" ry="2.5" style="stroke:#808080;stroke-width:0.5;" width="215.3008" x="22.35" y="149"/><rect fill="#808080" height="2.5" style="stroke:#808080;stroke-width:0.5;" width="215.3008" x="22.35" y="178.5"/><rect fill="none" height="113.1875" rx="2.5" ry="2.5" style="stroke:#555555;stroke-width:0.5;" width="215.3008" x="22.35" y="149"/><ellipse cx="66.3869" cy="165" fill="#ADD1B2" rx="11" ry="11" style="stroke:#181818;stroke-width:1;"/><path d="M69.3556,170.6406 Q68.7775,170.9375 68.1369,171.0781 Q67.4962,171.2344 66.7931,171.2344 Q64.2931,171.2344 62.965,169.5938 Q61.6525,167.9375 61.6525,164.8125 Q61.6525,161.6875 62.965,160.0313 Q64.2931,158.375 66.7931,158.375 Q67.4962,158.375 68.1369,158.5313 Q68.7931,158.6875 69.3556,158.9844 L69.3556,161.7031 Q68.7306,161.125 68.1369,160.8594 Q67.5431,160.5781 66.9181,160.5781 Q65.5744,160.5781 64.8869,161.6563 Q64.1994,162.7188 64.1994,164.8125 Q64.1994,166.9063 64.8869,167.9844 Q65.5744,169.0469 66.9181,169.0469 Q67.5431,169.0469 68.1369,168.7813 Q68.7306,168.5 69.3556,167.9219 L69.3556,170.6406 Z " fill="#000000"/><text fill="#000000" font-family="sans-serif" font-size="14" lengthAdjust="spacing" textLength="118.7744" x="86.8395" y="169.8467">Text File - Binary</text><line style="stroke:#555555;stroke-width:0.5;" x1="23.35" x2="236.6508" y1="181" y2="181"/><line style="stroke:#555555;stroke-width:0.5;" x1="23.35" x2="236.6508" y1="189" y2="189"/><ellipse cx="33.35" cy="202.6484" fill="#84BE84" rx="3" ry="3" style="stroke:#038048;stroke-width:1;"/><text fill="#000000" font-family="sans-serif" font-size="14" lengthAdjust="spacing" text-decoration="underline" textLength="177.4951" x="42.35" y="205.9951">Construct - File (Binary)()</text><ellipse cx="33.35" cy="218.9453" fill="#84BE84" rx="3" ry="3" style="stroke:#038048;stroke-width:1;"/><text fill="#000000" font-family="sans-serif" font-size="14" lengthAdjust="spacing" text-decoration="underline" textLength="189.3008" x="42.35" y="222.292">Construct - Input (Binary)()</text><ellipse cx="33.35" cy="235.2422" fill="#84BE84" rx="3" ry="3" style="stroke:#038048;stroke-width:1;"/><text fill="#000000" font-family="sans-serif" font-size="14" lengthAdjust="spacing" text-decoration="underline" textLength="78.7363" x="42.35" y="238.5889">Construct()</text><polygon fill="#FFFF44" points="33.35,246.5391,37.35,250.5391,33.35,254.5391,29.35,250.5391" style="stroke:#B38D22;stroke-width:1;"/><text fill="#000000" font-family="sans-serif" font-size="14" lengthAdjust="spacing" textLength="48.5146" x="42.35" y="254.8857">Write()</text></g><!--class Text File--><g class="entity" data-entity="Text File" data-source-line="15" data-uid="ent0004" id="entity_Text File"><rect fill="#FFFFFF" height="48" rx="2.5" ry="2.5" style="stroke:#555555;stroke-width:0.5;" width="91.835" x="84.08" y="41"/><rect fill="#808080" height="32" rx="2.5" ry="2.5" style="stroke:#808080;stroke-width:0.5;" width="91.835" x="84.08" y="41"/><rect fill="#808080" height="2.5" style="stroke:#808080;stroke-width:0.5;" width="91.835" x="84.08" y="70.5"/><rect fill="none" height="48" rx="2.5" ry="2.5" style="stroke:#555555;stroke-width:0.5;" width="91.835" x="84.08" y="41"/><ellipse cx="99.08" cy="57" fill="#ADD1B2" rx="11" ry="11" style="stroke:#181818;stroke-width:1;"/><path d="M102.0488,62.6406 Q101.4706,62.9375 100.83,63.0781 Q100.1894,63.2344 99.4863,63.2344 Q96.9863,63.2344 95.6581,61.5938 Q94.3456,59.9375 94.3456,56.8125 Q94.3456,53.6875 95.6581,52.0313 Q96.9863,50.375 99.4863,50.375 Q100.1894,50.375 100.83,50.5313 Q101.4863,50.6875 102.0488,50.9844 L102.0488,53.7031 Q101.4238,53.125 100.83,52.8594 Q100.2363,52.5781 99.6113,52.5781 Q98.2675,52.5781 97.58,53.6563 Q96.8925,54.7188 96.8925,56.8125 Q96.8925,58.9063 97.58,59.9844 Q98.2675,61.0469 99.6113,61.0469 Q100.2363,61.0469 100.83,60.7813 Q101.4238,60.5 102.0488,59.9219 L102.0488,62.6406 Z " fill="#000000"/><text fill="#000000" font-family="sans-serif" font-size="14" lengthAdjust="spacing" textLength="59.835" x="113.08" y="61.8467">Text File</text><line style="stroke:#555555;stroke-width:0.5;" x1="85.08" x2="174.915" y1="73" y2="73"/><line style="stroke:#555555;stroke-width:0.5;" x1="85.08" x2="174.915" y1="81" y2="81"/></g><!--reverse link Text File to Text File - Binary--><g class="link" data-entity-1="Text File" data-entity-2="Text File - Binary" data-source-line="15" data-uid="lnk5" id="link_Text File_Text File - Binary"><path codeLine="15" d="M130,107.2 C130,123.46 130,127.92 130,148.7" fill="none" id="Text File-backto-Text File - Binary" style="stroke:#181818;stroke-width:1;"/><polygon fill="none" points="130,89.2,124,107.2,136,107.2,130,89.2" style="stroke:#181818;stroke-width:1;"/></g><!--SRC=[bS_1QiCm30RWkvv2f9UMaT7BO9IT6XOswAs5dLr7PAQE5MIbT6HvzpbP1wCzTFkD3vO_91H9CPY6OciiRQarOfG5Ln0FBeol1WjlObmRUwY5kr0Lx1EObLEk64j5SYOFKov9oK7FO3db4hoGIJsk1ZuknmE_j7ARBkvPbHkid91Lnm7is0MptRR0voC5nGtNDSczFtgtN-tef5WwJvZZsWKZ7ndsq4Srwko0VKFwpjM0TmM7gD9PJN3oys- -c2zkyTVGTlfNFtx_L6TlufHI1GQukK26Jvzv_fz50U0B]--></g></svg>